<svg width="28" height="28" viewBox="0 0 28 28" fill="none" xmlns="http://www.w3.org/2000/svg">
<path d="M25.375 4.375H2.625C2.14102 4.375 1.75 4.76602 1.75 5.25V22.75C1.75 23.234 2.14102 23.625 2.625 23.625H25.375C25.859 23.625 26.25 23.234 26.25 22.75V5.25C26.25 4.76602 25.859 4.375 25.375 4.375ZM24.2812 7.40469V21.6562H3.71875V7.40469L2.96406 6.8168L4.03867 5.43594L5.20898 6.34648H22.7937L23.9641 5.43594L25.0387 6.8168L24.2812 7.40469ZM22.7937 6.34375L14 13.1797L5.20625 6.34375L4.03594 5.4332L2.96133 6.81406L3.71602 7.40195L13.0566 14.6645C13.3253 14.8731 13.6557 14.9864 13.9959 14.9864C14.3361 14.9864 14.6665 14.8731 14.9352 14.6645L24.2812 7.40469L25.0359 6.8168L23.9613 5.43594L22.7937 6.34375Z" fill="#ED2227"/>
</svg>
