<svg width="576" height="427" viewBox="0 0 576 427" fill="none" xmlns="http://www.w3.org/2000/svg">
<g opacity="0.5">
<path d="M553.213 66.2832C549.273 50.2066 545.55 33.8269 542.144 17.606C541.278 12.8382 540.743 8.01628 540.542 3.17464L540.326 0.0141602L539.027 0.0141602C539.027 1.11095 539.186 2.20773 539.258 3.29009C539.462 8.17999 540.002 13.0501 540.874 17.8658C544.28 34.0867 548.018 50.4808 551.943 66.5718C553.026 70.9734 556.056 77.5541 559.549 85.1739C567.63 102.751 578.699 126.837 572.537 140.446C571.501 142.637 570.01 144.582 568.163 146.152C566.317 147.723 564.158 148.882 561.829 149.552C554.858 151.89 546.257 149.394 537.93 146.969C532.475 145.382 527.338 143.881 522.647 143.679C501.145 142.798 482.932 144.689 466.986 149.451C433.793 159.308 400.356 189.643 403.588 226.443C404.281 234.409 406.677 242.447 408.971 250.226C413.07 264.037 416.937 277.083 412.233 289.869C407.139 303.709 393.472 312.382 378.709 320.781L211.983 415.639H214.537L379.416 321.834C394.381 313.32 408.279 304.517 413.488 290.273C418.337 277.112 414.239 263.257 410.27 249.865C407.976 242.159 405.609 234.178 404.916 226.327C401.756 190.162 434.746 160.347 467.404 150.635C483.279 145.93 501.289 144.068 522.633 144.862C527.15 145.05 532.23 146.536 537.598 148.095C546.113 150.577 554.916 153.146 562.291 150.664C564.803 149.955 567.135 148.714 569.127 147.026C571.118 145.338 572.724 143.242 573.836 140.879C580.185 126.765 568.987 102.405 560.847 84.5966C557.254 77.1067 554.223 70.5693 553.213 66.2832Z" fill="url(#paint0_linear_7951_539)"/>
<path d="M506.196 67.9144C502.92 55.8064 499.688 43.1068 496.325 29.0795C495.505 25.2684 494.903 21.4138 494.521 17.5343C493.814 11.5742 493.078 5.48412 491.014 0.0290527L489.571 0.0290527C491.75 5.46969 492.458 11.5742 493.194 17.6787C493.579 21.6071 494.191 25.51 495.026 29.3681C498.389 43.4098 501.622 56.1239 504.897 68.2463C505.936 72.1139 508.549 77.5834 511.565 83.9332C520.065 101.77 531.697 126.203 517.207 134.443C512.69 137.026 506.99 136.435 500.958 135.785C499.515 135.641 498.158 135.497 496.773 135.396C494.588 135.21 492.391 135.21 490.206 135.396C478.055 136.42 461.343 137.849 446.335 142.121C440.38 143.794 434.604 146.046 429.089 148.846C406.403 160.391 391.568 177.896 389.518 195.56C389.055 200.904 389.142 206.282 389.778 211.608C390.557 220.988 391.308 229.835 386.315 238.595C380.629 248.538 368.593 255.018 357.769 260.242C337.565 270.098 311.589 283.577 288.6 300.52C282.663 305.067 276.97 309.923 271.542 315.067C267.385 318.891 263.085 322.845 258.438 326.612C254.036 330.014 249.428 333.142 244.642 335.978C240.644 338.46 236.531 341.014 232.837 343.799C229.551 346.345 226.419 349.082 223.456 351.997C217.438 357.769 211.752 363.094 202.545 366.183C193.865 369.116 185.353 372.523 177.045 376.386C170.522 379.373 164.057 382.692 157.144 386.213L153.305 388.219C139.971 395.017 128.974 398.567 118.67 399.375C108.366 400.183 97.5278 398.292 87.5124 396.099L85.2034 395.55C75.9673 393.487 67.2507 391.524 58.4187 392.303C52.9007 392.957 47.4619 394.161 42.1834 395.897C35.7325 397.773 29.0364 399.721 21.8784 399.649C13.9796 399.704 6.29274 397.096 0.0581055 392.246L0.0581055 393.819C6.36863 398.487 14.0294 400.969 21.8784 400.89C29.2817 400.962 36.0356 399 42.573 397.08C47.7691 395.38 53.1202 394.195 58.5486 393.545C67.2074 392.78 75.7941 394.714 84.9292 396.763L87.2526 397.282C97.3546 399.505 108.207 401.439 118.8 400.587C129.392 399.736 140.447 396.171 153.911 389.302L157.793 387.31C164.663 383.803 171.157 380.484 177.637 377.511C185.906 373.691 194.375 370.318 203.007 367.409C212.488 364.22 218.275 358.75 224.409 352.978C227.339 350.099 230.432 347.391 233.674 344.867C237.325 342.111 241.423 339.571 245.378 337.118C250.215 334.252 254.87 331.09 259.318 327.651C263.994 323.899 268.309 319.93 272.48 316.106C277.874 311 283.534 306.183 289.437 301.674C312.296 284.804 338.301 271.368 358.404 261.526C369.401 256.158 381.624 249.562 387.498 239.316C392.679 230.224 391.827 220.772 391.106 211.622C390.485 206.377 390.398 201.083 390.846 195.82C392.881 178.502 407.428 161.444 429.739 150.058C435.179 147.296 440.878 145.077 446.753 143.434C461.69 139.191 478.257 137.777 490.365 136.752C492.478 136.574 494.602 136.574 496.715 136.752C498.158 136.853 499.471 136.997 500.857 137.142C507.12 137.806 513.022 138.426 517.915 135.699C533.399 126.823 521.479 101.814 512.791 83.5436C510.197 78.51 507.992 73.285 506.196 67.9144Z" fill="url(#paint1_linear_7951_539)"/>
<path d="M459.164 69.5449C456.567 61.1458 453.897 52.2272 450.506 40.5378C449.683 37.7525 449.062 34.8662 448.471 31.8789C447.028 24.923 445.584 17.7217 441.255 11.9492C437.942 7.72605 433.745 4.27825 428.959 1.84719C427.64 1.10722 426.253 0.493562 424.818 0.0144043L420.964 0.0144043C421.773 0.317464 422.566 0.59166 423.346 0.851426C425.09 1.3595 426.778 2.04622 428.382 2.90069C432.984 5.23597 437.022 8.54526 440.216 12.5986C444.314 18.1547 445.772 25.2116 447.172 32.0521C447.778 34.9384 448.399 38.0412 449.236 40.8697C452.598 52.5447 455.268 61.4922 457.894 69.9057C459.569 74.4299 461.556 78.8325 463.84 83.0816C470.19 95.709 478.084 111.454 472.499 119.564C470.118 123.042 466.726 124.269 461.978 125.755H461.805C460.506 126.159 459.121 126.578 457.707 127.054C451.747 128.866 445.697 130.364 439.581 131.542C434.992 132.538 430.244 133.548 425.712 134.746C421.22 135.895 416.808 137.341 412.508 139.075C395.19 146.176 382.072 155.21 375.563 164.518C373.75 167.186 372.134 169.984 370.729 172.888C368.203 177.824 365.808 182.485 360.497 187.233C354.594 192.486 345.647 196.383 336.873 199.803C309.107 210.713 287.243 223.701 271.874 238.652C266.548 243.862 262.868 249.793 259.318 255.522C256.569 260.213 253.457 264.681 250.01 268.886C246.676 272.811 242.159 275.871 237.801 278.844C234.029 281.242 230.492 283.991 227.237 287.055C224.508 290.045 222.202 293.396 220.382 297.013C216.746 303.521 213.311 309.683 203.151 311.083C194.482 312.209 185.942 314.171 177.651 316.942C169.665 319.748 161.99 323.37 154.748 327.752C143.333 334.534 133.635 339.614 123.418 342.385C113.827 345.004 103.779 345.497 93.9777 343.828C89.1865 343.034 84.4241 341.822 79.8349 340.639C75.5921 339.542 71.1761 338.416 66.9332 337.753C54.4645 335.602 43.0348 336.309 31.4464 337.305C28.3725 337.579 25.5295 337.897 22.7876 338.2C14.2442 339.152 7.37483 339.874 0.0581055 338.07L0.0581055 339.34C7.57687 341.115 14.6483 340.321 22.9463 339.34C25.6738 339.037 28.5024 338.705 31.6052 338.445C43.1503 337.464 54.4356 336.757 66.7456 338.878C70.9596 339.6 75.1303 340.682 79.5463 341.764C83.9623 342.847 88.9556 344.189 93.8045 344.983C103.796 346.687 114.04 346.194 123.822 343.54C134.169 340.725 144.026 335.602 155.47 328.776C162.631 324.436 170.225 320.852 178.127 318.083C186.34 315.348 194.797 313.415 203.382 312.31C214.177 310.867 217.814 304.387 221.566 297.59C223.332 294.07 225.57 290.807 228.219 287.892C231.415 284.891 234.89 282.199 238.595 279.854C243.176 277.02 247.364 273.594 251.049 269.665C254.538 265.41 257.688 260.889 260.473 256.143C263.98 250.471 267.689 244.598 272.841 239.504C288.066 224.697 309.799 211.738 337.421 200.957C346.325 197.494 355.388 193.54 361.449 188.157C366.933 183.25 369.488 178.257 371.955 173.437C373.34 170.585 374.926 167.836 376.703 165.211C382.981 156.234 396.243 147.128 413.085 140.215C417.318 138.527 421.657 137.114 426.073 135.987C430.576 134.804 435.309 133.794 439.884 132.812C446.045 131.619 452.139 130.102 458.14 128.266C459.583 127.804 460.911 127.386 462.224 126.982H462.383C467.304 125.539 471.041 124.096 473.596 120.3C479.599 111.641 471.532 95.507 465.038 82.5765C462.777 78.3756 460.814 74.021 459.164 69.5449Z" fill="url(#paint2_linear_7951_539)"/>
<path d="M412.146 71.1612C407.827 59.9625 403.497 48.7877 399.158 37.6371C396.041 29.6709 392.933 21.7096 389.836 13.7531C388.12 8.99609 385.991 4.39887 383.471 0.0144043L381.956 0.0144043C384.605 4.51727 386.818 9.26266 388.566 14.186C391.673 22.1522 394.781 30.1135 397.888 38.07C402.247 49.2399 406.576 60.4146 410.877 71.5942C412.8 75.9252 415.068 80.0949 417.659 84.0629C424.312 94.9875 431.831 107.355 427.025 116.36C422.927 124.009 408.019 126.953 399.115 128.699L395.94 129.334C383.731 131.903 370.858 132.855 358.418 133.779C344.276 134.818 329.671 135.901 315.947 139.35C290.418 145.786 268.222 159.409 255.061 176.741C250.659 182.514 248.797 189.354 247.008 195.95C245.795 201.234 243.943 206.351 241.495 211.189C239.042 215.519 234.886 218.708 230.874 221.724C227.35 224.122 224.212 227.042 221.565 230.383C219.083 233.875 218.246 238.147 217.424 242.289C215.98 249.865 214.624 256.417 203.642 256.071C186.208 255.537 172.585 256.071 156.148 267.385L150.779 271.137C135.092 282.148 118.886 293.549 100.356 291.673C91.5528 290.793 83.1249 286.824 74.9711 283.014C64.0899 277.92 52.8478 272.638 40.9419 274.947C34.4045 276.203 28.3144 279.695 22.4264 283.058C14.8788 287.387 7.70637 291.485 0 290.952L0 292.193C8.12488 292.683 15.7158 288.354 23.0902 284.125C28.8628 280.821 34.8663 277.386 41.2017 276.159C52.7468 273.937 63.224 278.901 74.3939 284.14C82.6487 288.008 91.1776 292.019 100.197 292.929C119.232 294.848 135.655 283.303 151.53 272.147L156.884 268.41C173.004 257.297 186.396 256.865 203.584 257.326C215.677 257.716 217.221 249.995 218.679 242.534C219.473 238.522 220.281 234.38 222.619 231.104C225.187 227.879 228.24 225.07 231.667 222.778C235.78 219.675 240.038 216.471 242.621 211.853C245.138 206.914 247.038 201.684 248.278 196.281C250.053 189.802 251.871 183.106 256.129 177.521C269.117 160.419 291.053 146.955 316.293 140.605C329.902 137.185 344.463 136.103 358.548 135.063C371.031 134.14 383.948 133.187 396.258 130.59L399.404 129.969C409.13 128.05 423.822 125.164 428.194 116.981C433.346 107.37 425.625 94.67 418.814 83.4712C416.262 79.5553 414.032 75.4384 412.146 71.1612Z" fill="url(#paint3_linear_7951_539)"/>
<path d="M326.035 35.5301C324.231 30.9987 322.109 26.1786 319.569 20.7668C316.9 14.9942 313.624 8.54339 308.587 3.83875C307.682 2.97361 306.718 2.1731 305.701 1.44314C304.965 0.938041 304.258 0.461805 303.421 0L300.823 0C302.243 0.728001 303.616 1.5425 304.936 2.43891C305.926 3.13256 306.866 3.89446 307.75 4.71907C312.628 9.27939 315.817 15.6436 318.444 21.2575C320.984 26.6548 323.091 31.4605 324.88 35.9631L325.255 36.8578C329.585 47.7391 334.116 58.9811 334.131 69.2563C334.099 75.7634 333.559 82.2581 332.514 88.681C331.894 93.2557 330.682 98.5088 326.439 102.766C323.697 105.522 319.31 107.759 313.768 109.26C309.944 110.27 305.946 111.122 302.078 111.93C298.673 112.652 295.44 113.373 292.698 114.051C287.2 115.495 281.817 116.938 276.621 118.698C272.235 120.199 268.188 122.553 264.716 125.625L263.171 126.838C261.658 127.954 260.038 128.921 258.337 129.724C257.702 130.041 257.096 130.359 256.461 130.705C255.327 131.433 254.302 132.317 253.416 133.332C252.001 134.848 250.445 136.225 248.769 137.445C244.988 140.172 240.601 142.957 235.968 145.887C225.188 152.728 212.965 160.463 203.988 170.334C201.566 173.09 199.513 176.152 197.884 179.44C197.177 180.768 196.527 182.11 195.878 183.438C194.218 187.176 192.125 190.707 189.643 193.958C187.262 196.844 183.698 198.836 180.263 200.741C177.445 202.134 174.813 203.875 172.427 205.922C170.45 208.036 168.923 210.53 167.939 213.253C165.875 217.986 164.114 222.07 155.73 221.479C141.876 220.469 130.215 220.295 116.924 227.54C114.283 228.983 111.541 230.542 108.9 232.057C103.127 235.391 97.0516 238.825 90.9326 241.611C84.9102 244.614 78.3523 246.395 71.6379 246.849C64.9994 247.109 58.6496 245.493 52.5596 243.963C44.2038 241.827 35.5594 239.633 26.2944 242.332C23.8498 243.064 21.4817 244.031 19.223 245.218C17.0583 246.315 14.8936 247.556 12.801 248.754C8.7939 251.276 4.52032 253.348 0.0581055 254.931L0.0581055 256.215C4.74203 254.625 9.22253 252.489 13.4072 249.851C15.4853 248.667 17.6356 247.426 19.757 246.344C21.9474 245.19 24.2427 244.248 26.6119 243.53C35.5305 240.918 43.6121 242.982 52.1699 245.161C58.3898 246.748 64.8118 248.379 71.6379 248.047C77.6558 247.816 83.9478 246.113 91.4377 242.693C97.6 239.893 103.647 236.43 109.506 233.082C112.147 231.638 114.874 230.022 117.515 228.579C130.504 221.508 141.948 221.695 155.585 222.677C164.879 223.34 167.015 218.434 169.064 213.7C169.994 211.129 171.426 208.77 173.278 206.759C175.583 204.789 178.123 203.112 180.84 201.765C184.39 199.803 188.056 197.782 190.596 194.694C193.14 191.362 195.285 187.744 196.989 183.914C197.624 182.601 198.273 181.273 198.981 179.96C200.558 176.761 202.552 173.787 204.912 171.113C213.773 161.372 225.91 153.68 236.661 146.897C241.322 144.011 245.724 141.125 249.534 138.412C251.265 137.119 252.874 135.67 254.339 134.082C255.139 133.156 256.067 132.349 257.096 131.687C257.716 131.34 258.308 131.037 258.929 130.734C260.694 129.883 262.375 128.869 263.951 127.703C264.441 127.343 264.961 126.924 265.524 126.462C268.899 123.5 272.821 121.225 277.069 119.766C282.235 118.063 287.589 116.606 293.073 115.148C295.786 114.427 298.99 113.705 302.382 113.027C306.264 112.219 310.276 111.367 314.143 110.343C319.916 108.784 324.49 106.432 327.391 103.516C331.908 98.985 333.164 93.5011 333.828 88.7243C334.835 82.2932 335.351 75.7947 335.372 69.2852C335.372 58.7791 330.797 47.4216 326.395 36.4393L326.035 35.5301Z" fill="url(#paint4_linear_7951_539)"/>
<path d="M249.332 27.7516C246.578 22.9431 243.179 18.5343 239.23 14.6478C238.45 13.9263 237.657 13.2047 236.877 12.6274C235.434 11.4729 233.818 10.4483 232.303 9.45254C230.403 8.26539 228.581 6.95914 226.847 5.54163C224.97 3.89481 223.285 2.04057 221.825 0.0144043L220.267 0.0144043C221.911 2.40403 223.85 4.57632 226.039 6.47967C227.812 7.93215 229.678 9.26749 231.624 10.4772C233.067 11.4585 234.669 12.4831 236.098 13.5944C236.863 14.186 237.628 14.8499 238.364 15.5426C242.244 19.3418 245.58 23.6592 248.278 28.3721C250.542 32.0689 252.529 35.9277 254.224 39.9172C257.543 47.8978 260.776 59.0533 257.384 66.8751C255.147 72.0415 251.02 73.7444 246.662 75.5339C244.188 76.4473 241.825 77.6382 239.619 79.0841C238.061 80.1664 236.531 81.3787 234.929 82.663C232.014 85.0977 228.911 87.2982 225.65 89.2438C221.209 91.7156 216.368 93.3863 211.348 94.1793C203.878 95.226 196.487 96.7736 189.225 98.8118C183.681 100.524 178.323 102.792 173.235 105.58C166.495 109.303 165.658 116.822 167.65 120.589C169.223 123.475 171.734 124.788 174.158 125.986L175.847 126.838C179.7 128.959 181.533 131.903 181.446 135.828C176.265 144.314 162.685 155.931 152.843 163.955C150.982 165.47 149.394 166.986 147.85 168.429L146.609 169.612C143.941 172.306 140.984 174.697 137.791 176.741C135.058 178.145 132.144 179.165 129.132 179.772C127.143 180.235 125.186 180.828 123.273 181.547C121.63 182.248 120.083 183.154 118.67 184.246C115.957 186.194 113.604 187.868 107.687 187.002C97.2534 185.458 87.7864 184.462 77.6123 187.796C70.4934 190.234 63.5253 193.091 56.7445 196.354C52.201 198.607 47.5039 200.536 42.6883 202.126C38.5809 203.293 34.3945 204.161 30.1618 204.724C24.2594 205.647 18.1405 206.6 11.401 209.789C9.58264 210.655 7.82201 211.665 6.35001 212.531L4.17087 213.816C2.72773 214.624 1.4289 215.446 0.0290527 216.226L0.0290527 217.669C1.6598 216.774 3.26169 215.822 4.86357 214.869L7.04272 213.599C8.48586 212.748 10.2321 211.752 11.9927 210.915C18.5301 207.798 24.2738 206.903 30.3639 205.951C34.6544 205.38 38.8985 204.502 43.0635 203.324C47.9383 201.702 52.6932 199.739 57.2929 197.45C64.0157 194.216 70.9263 191.387 77.9875 188.979C87.9019 185.718 96.7483 186.656 107.456 188.229C113.893 189.181 116.563 187.276 119.406 185.241C120.739 184.216 122.193 183.358 123.735 182.687C125.622 181.999 127.55 181.431 129.508 180.984C132.627 180.338 135.643 179.265 138.47 177.795C141.74 175.733 144.77 173.313 147.504 170.579L148.759 169.396C150.289 167.953 151.862 166.509 153.68 164.98C163.609 156.855 177.42 145.05 182.658 136.377L182.731 136.247V136.088C182.875 131.586 180.826 128.223 176.482 125.827L174.678 124.875C172.326 123.72 170.103 122.624 168.732 120.026C166.957 116.692 167.751 109.924 173.812 106.662C178.862 103.903 184.181 101.669 189.687 99.9952C196.887 97.9726 204.215 96.4394 211.622 95.406C216.793 94.5852 221.779 92.866 226.357 90.3261C229.681 88.3496 232.842 86.1105 235.809 83.63C237.397 82.36 238.898 81.1622 240.427 80.0943C242.52 78.7365 244.756 77.6137 247.095 76.7462C251.511 74.9278 256.071 73.0517 258.51 67.4091C262.06 59.1976 258.755 47.7102 255.364 39.5132C253.64 35.4521 251.624 31.5213 249.332 27.7516Z" fill="url(#paint5_linear_7951_539)"/>
<path d="M169.973 25.4425C159.439 15.5859 147.504 4.34383 132.178 0.27417C131.831 0.17315 131.485 0.100993 131.139 0.0144043L124.616 0.0144043C127.046 0.359111 129.455 0.840926 131.831 1.45754C146.84 5.51277 158.645 16.5672 169.064 26.3229C174.389 31.3161 180.422 36.9588 183.496 43.9725C186.194 50.1347 186.454 59.2265 180.609 64.6094C175.111 69.7181 167.275 69.5449 158.962 69.3717C154.922 69.1751 150.873 69.3054 146.854 69.7614C140.937 70.7715 135.119 72.2925 129.465 74.3073C122.725 76.5008 116.419 78.579 109.102 79.0985C92.0006 80.3107 79.8782 84.4237 69.8195 92.4476C68.5661 93.4688 67.566 94.7662 66.8975 96.2384C66.229 97.7105 65.9103 99.3174 65.9663 100.933C66.0423 103.412 66.659 105.845 67.7733 108.061C68.8875 110.277 70.4724 112.223 72.4172 113.763C77.7424 117.919 84.5684 119.535 91.178 120.978C92.6211 121.296 93.9632 121.599 95.3342 121.945C105.581 124.456 111.815 128.454 114.384 134.226C115.259 136.317 115.621 138.587 115.44 140.847C115.259 143.106 114.541 145.289 113.345 147.215C111.489 150.338 108.981 153.023 105.992 155.088C103.004 157.153 99.6044 158.548 96.0269 159.178C85.0446 161.011 74.0191 157.259 63.3398 153.651L59.732 152.439C48.6342 148.759 34.376 145.223 22.5855 150.996C15.3698 154.488 10.4199 160.809 5.62863 166.87C3.83913 169.15 2.00635 171.474 0.0581055 173.653L0.0581055 175.529C2.41042 173.004 4.5607 170.291 6.65326 167.621C11.6032 161.473 16.2357 155.556 23.1484 152.179C34.5203 146.652 48.4466 150.087 59.299 153.622L62.8924 154.82C73.7304 158.5 84.9292 162.281 96.2434 160.405C100.008 159.738 103.585 158.267 106.73 156.093C109.876 153.919 112.516 151.093 114.47 147.806C115.742 145.718 116.499 143.357 116.68 140.918C116.86 138.479 116.459 136.032 115.509 133.779C112.767 127.617 106.259 123.36 95.6084 120.791L91.4666 119.795C85.0158 118.352 78.334 116.808 73.2398 112.839C71.4383 111.418 69.9698 109.619 68.9377 107.57C67.9055 105.521 67.3346 103.27 67.2652 100.977C67.2074 99.5453 67.4823 98.1201 68.0682 96.813C68.6542 95.5059 69.5352 94.3525 70.6421 93.4433C80.4843 85.6071 92.3758 81.5807 109.203 80.4551C116.678 79.9211 123.418 77.742 129.926 75.6205C135.511 73.6339 141.257 72.1323 147.1 71.1324C151.046 70.6754 155.023 70.545 158.991 70.7427C167.188 70.9159 175.659 71.1035 181.547 65.634C187.811 59.8614 187.637 50.38 184.679 43.6261C181.504 36.2517 175.385 30.508 169.973 25.4425Z" fill="url(#paint6_linear_7951_539)"/>
<g opacity="0.4">
<path opacity="0.4" d="M570.935 11.7048C569.42 26.3485 566.521 40.8157 562.277 54.9125C551.034 90.8899 529.474 118.411 501.564 132.395C483.943 141.241 463.883 144.632 444.487 147.908C435.194 149.481 425.582 151.112 416.317 153.32C380.816 161.777 356.196 180.927 350.481 204.537C348.345 213.326 348.663 222.88 348.966 232.101C349.471 247.168 349.933 261.411 340.495 272.235C331.98 281.991 317.549 285.901 303.651 289.711C285.713 294.618 268.771 299.251 265.639 315.688C263.922 324.751 268.078 333.323 272.09 341.664C275.279 348.274 278.584 355.1 278.988 362.186C280.431 386.46 250.789 400.011 225.043 404.239L224.51 404.326C203.368 407.804 177.824 412.003 164.72 427.416H166.423C179.411 412.984 204.19 408.973 224.726 405.596L225.26 405.509C251.525 401.18 281.716 387.253 280.287 362.215C279.868 354.869 276.506 347.942 273.259 341.231C269.146 332.746 265.264 324.722 266.909 316.063C269.896 300.362 286.464 295.859 303.998 291.039C318.097 287.2 332.673 283.217 341.433 273.173C351.188 261.974 350.712 247.5 350.193 232.188C349.904 223.038 349.587 213.586 351.636 204.956C357.25 181.866 381.509 163.004 416.577 154.662C425.799 152.469 435.338 150.838 444.661 149.265C464.143 145.975 484.304 142.554 502.112 133.636C530.325 119.493 552.117 91.6981 563.446 55.4031C567.759 41.15 570.702 26.5175 572.234 11.7048L570.935 11.7048Z" fill="url(#paint7_linear_7951_539)"/>
<path opacity="0.4" d="M472.932 11.7048H471.647C471.777 13.8118 471.95 15.8899 472.138 17.9103C472.47 21.5326 472.831 25.2848 472.816 29.0658C472.932 42.6515 470.075 56.0982 464.446 68.4635C452.988 93.1701 437.026 113.302 418.107 126.709C416.216 128.051 414.297 129.335 412.407 130.533C399.938 138.34 386.877 143.319 374.25 148.125C367.034 150.881 359.53 153.739 352.43 157.043C347.716 159.237 343.156 161.744 338.778 164.548C321.849 175.343 311.358 189.081 308.255 204.35C306.812 211.565 307 219.358 307.173 226.848C307.476 239.158 307.75 250.775 301.4 260.156C295.757 268.541 286.276 273.144 277.112 277.661C268.583 281.832 260.516 285.772 255.552 292.482C253.31 295.448 251.824 298.915 251.222 302.584C250.111 309.468 252.406 316.049 254.628 322.413C256.85 328.777 258.842 334.434 257.99 340.51C255.552 358.001 234.366 362.561 221.912 363.73C213.41 364.331 204.875 364.268 196.383 363.542C188.384 362.878 180.336 363.139 172.398 364.322C152.829 367.67 136.925 378.262 127.718 394.137C124.693 399.668 122.181 405.465 120.214 411.455C118.652 416.206 116.722 420.829 114.441 425.28C114.081 425.929 113.705 426.564 113.316 427.199H114.759C115.019 426.752 115.278 426.319 115.524 425.872C117.797 421.357 119.727 416.678 121.296 411.873C123.236 405.926 125.714 400.168 128.7 394.671C137.705 379.085 153.305 368.694 172.6 365.433C180.439 364.276 188.384 364.019 196.282 364.668C204.846 365.401 213.454 365.464 222.027 364.856C234.814 363.658 256.663 358.896 259.217 340.568C260.112 334.203 257.918 327.94 255.797 321.893C253.676 315.847 251.381 309.237 252.449 302.656C253.003 299.183 254.389 295.895 256.49 293.074C261.266 286.623 269.189 282.741 277.588 278.642C286.911 274.082 296.537 269.378 302.367 260.704C308.919 250.992 308.616 238.639 308.327 226.689C308.154 219.257 307.966 211.565 309.381 204.451C312.354 189.557 322.715 176.064 339.355 165.486C343.683 162.722 348.191 160.248 352.848 158.083C359.905 154.792 367.034 152.079 374.582 149.207C387.267 144.373 400.4 139.379 412.969 131.485C414.874 130.288 416.823 128.989 418.742 127.632C437.791 114.096 453.955 93.7762 465.485 68.882C471.231 56.3828 474.176 42.779 474.115 29.0225C474.115 25.1838 473.769 21.4172 473.422 17.766C473.235 15.8034 473.076 13.7685 472.932 11.7048Z" fill="url(#paint8_linear_7951_539)"/>
<path opacity="0.4" d="M374.293 29.9173C373.25 26.4646 372.468 22.9381 371.955 19.3679C371.637 16.8235 371.637 14.2493 371.955 11.7048L370.657 11.7048C370.339 14.2976 370.339 16.9195 370.657 19.5122C371.182 23.1396 371.973 26.7234 373.023 30.2348C374.087 33.737 374.873 37.3174 375.376 40.9429C377.18 56.5576 374.236 70.3685 366.717 82.0146C355.417 99.3323 339.716 114.197 327.305 125.179L323.322 128.686L316.394 134.689C305.86 143.81 296.753 151.675 288.556 160.882C286.161 163.581 283.837 166.438 281.615 169.368C272.754 181.115 267.688 192.458 266.13 204.176C265.513 209.966 265.301 215.791 265.495 221.61C265.581 231.149 265.683 240.154 262.45 248.135C259.564 255.163 254.946 260.43 250.429 265.452C245.912 270.474 241.856 275.092 239.244 281.327C238.126 283.926 237.382 286.672 237.036 289.48C236.667 293.911 236.89 298.371 237.7 302.743C238.494 308.429 239.244 313.797 237.238 318.863C231.307 333.871 210.093 334.593 193.728 330.639C188.705 329.427 183.51 327.753 178.474 326.151C175.053 325.054 171.518 323.928 168.011 322.918C159.981 320.343 151.516 319.406 143.117 320.162C125.972 322.067 111.18 332.082 96.4454 351.738C94.4395 354.422 92.5345 357.135 90.6729 359.761C85.4199 367.28 80.441 374.366 73.9469 379.388C72.0363 380.855 70.0092 382.163 67.8857 383.299C63.1726 385.718 58.2261 387.652 53.1224 389.072C32.9184 395.277 15.2111 398.784 0.0581055 399.607L0.0581055 400.848C15.3554 400.039 33.2503 396.518 53.4543 390.269C58.6492 388.798 63.6823 386.806 68.4774 384.324C70.6557 383.149 72.74 381.808 74.7118 380.312C81.3646 375.16 86.3868 368.002 91.6975 360.411C93.5447 357.784 95.4353 355.086 97.4701 352.401C111.901 333.078 126.477 323.207 143.189 321.359C151.418 320.619 159.712 321.541 167.578 324.073C171.056 325.068 174.592 326.194 177.997 327.291C183.048 328.907 188.272 330.581 193.338 331.808C210.223 335.877 232.144 335.04 238.378 319.267C240.5 313.913 239.72 308.386 238.912 302.526C238.116 298.246 237.892 293.878 238.248 289.538C238.579 286.843 239.294 284.209 240.37 281.716C242.91 275.727 246.994 271.109 251.338 266.231C255.927 261.065 260.675 255.711 263.576 248.481C266.895 240.284 266.808 230.73 266.707 221.494C266.517 215.714 266.729 209.927 267.342 204.176C268.872 192.718 273.851 181.519 282.582 169.945C284.79 167.059 287.099 164.173 289.465 161.532C297.605 152.397 306.682 144.546 317.188 135.454C319.44 133.53 321.749 131.529 324.115 129.451L328.098 125.944C340.582 114.904 356.355 99.9673 367.741 82.5053C375.477 70.6283 378.478 56.5288 376.646 40.6542C376.14 37.0198 375.354 33.4301 374.293 29.9173Z" fill="url(#paint9_linear_7951_539)"/>
<path opacity="0.4" d="M275.193 41.4624C273.442 37.8979 272.087 34.1522 271.152 30.2925C269.925 24.2313 271.051 18.502 274.255 14.5911C275.163 13.5174 276.189 12.5492 277.314 11.7048L275.308 11.7048C274.563 12.3538 273.873 13.0634 273.245 13.8263C269.824 18.0114 268.598 24.1014 269.896 30.5378C270.841 34.4998 272.216 38.3469 273.995 42.0108C275.691 45.4823 277.026 49.1189 277.978 52.8632C281.86 70.7726 278.83 85.1607 268.944 95.5946C264.416 100.098 259.5 104.193 254.253 107.832C247.86 112.551 241.265 117.415 236.372 123.707C225.852 137.345 224.726 154.749 224.409 174.419L222.836 270.316C222.677 280.851 222.071 290.144 216.37 297.23C205.157 311.214 182.024 307.246 165.283 297.634C162.007 295.758 158.688 293.694 155.47 291.689C142.482 283.564 128.959 275.165 113.619 276.03C94.6848 277.084 82.1584 290.765 68.8815 305.254C58.462 316.64 47.6817 328.431 33.4668 333.525C24.808 336.613 15.3265 336.945 6.19145 337.263C4.18549 337.263 2.13623 337.451 0.0581055 337.595L0.0581055 338.836C2.15066 338.706 4.21435 338.591 6.23475 338.518C15.4708 338.187 24.9956 337.84 33.9142 334.694C48.3456 329.557 59.3279 317.636 69.8772 306.12C82.9521 291.833 95.3054 278.339 113.691 277.257C128.627 276.42 141.904 284.704 154.763 292.713C157.995 294.734 161.329 296.812 164.619 298.688C181.836 308.573 205.691 312.556 217.395 297.981C223.817 289.986 224.005 278.628 224.135 270.33L225.693 174.419C226.011 154.965 227.136 137.778 237.411 124.429C242.188 118.237 248.726 113.417 255.032 108.77C260.348 105.085 265.332 100.942 269.925 96.3883C280.027 85.6225 283.217 70.8736 279.234 52.5457C278.271 48.7221 276.917 45.008 275.193 41.4624Z" fill="url(#paint10_linear_7951_539)"/>
<path opacity="0.4" d="M231.321 11.7048C228.59 16.8566 224.838 21.3985 220.295 25.0539C219.862 25.4147 219.415 25.761 218.953 26.1074C216.705 27.6779 214.751 29.6319 213.181 31.8799C212.165 33.5224 211.492 35.3535 211.204 37.2628C210.833 39.772 210.906 42.3267 211.42 44.8105C212.071 47.6982 212.974 50.5232 214.119 53.2528C215.322 56.0903 216.246 59.0387 216.875 62.056C219.213 75.6937 216.529 86.5894 208.866 94.5555C205.177 98.1383 201.168 101.375 196.888 104.225C192.119 107.351 187.723 111.011 183.784 115.135C175.125 125.02 172.888 137.677 171.286 150.852C170.983 153.335 170.695 155.817 170.42 158.328C168.977 170.941 168.054 184.16 167.116 196.932C166.524 205.086 165.903 213.514 165.182 221.682C164.619 227.974 163.912 235.81 159.005 241.193C148.542 252.738 129.017 246.648 121.094 243.531C119.535 242.91 117.962 242.247 116.447 241.539C114.932 240.832 113.373 240.096 111.829 239.375C102.737 235.045 93.3279 230.615 84.4093 230.211C81.2658 230.056 78.1172 230.382 75.0722 231.178C70.9288 232.306 67.0195 234.163 63.527 236.662C57.5663 240.94 51.8744 245.581 46.4836 250.559C38.7916 257.371 30.8255 264.399 22.2532 269.002C18.1859 271.259 13.8101 272.907 9.26496 273.895C6.21197 274.505 3.11232 274.852 0 274.934L0 276.189C3.20518 276.107 6.39706 275.745 9.53916 275.107C14.2128 274.074 18.7101 272.362 22.8882 270.027C31.547 265.351 39.5998 258.265 47.4216 251.41C52.7756 246.464 58.4289 241.852 64.3496 237.6C67.7078 235.203 71.4585 233.41 75.4329 232.303C78.3521 231.548 81.3691 231.242 84.3804 231.394C93.0393 231.769 102.29 236.171 111.266 240.414L115.826 242.607C117.371 243.314 118.958 244.05 120.56 244.628C128.728 247.846 148.918 254.051 159.914 241.958C165.095 236.257 165.831 228.205 166.409 221.754C167.13 213.571 167.751 205.143 168.357 196.99C169.295 184.232 170.262 171.013 171.647 158.429C171.921 155.932 172.21 153.436 172.513 150.968C174.1 137.98 176.207 125.54 184.708 115.914C188.584 111.868 192.907 108.276 197.595 105.206C201.939 102.322 206.007 99.0417 209.746 95.407C217.698 87.1811 220.512 75.8813 218.087 61.854C217.426 58.7547 216.459 55.7286 215.201 52.8199C214.086 50.1541 213.202 47.3971 212.56 44.5796C212.072 42.2387 212.004 39.8297 212.358 37.4649C212.619 35.7167 213.227 34.0385 214.148 32.5294C215.671 30.4211 217.545 28.5905 219.689 27.1176L221.06 26.0641C225.925 22.1506 229.912 17.2585 232.764 11.7048L231.321 11.7048Z" fill="url(#paint11_linear_7951_539)"/>
<path opacity="0.4" d="M156.249 46.1815C156.451 45.8495 156.653 45.5176 156.841 45.1857C160.781 38.3308 161.921 29.3833 160.131 19.3246C159.785 17.4341 159.338 15.5292 158.804 13.6531C158.616 12.9892 158.385 12.3542 158.183 11.7048H156.826C157.072 12.4553 157.332 13.2201 157.548 13.985C158.063 15.8138 158.482 17.6684 158.804 19.5411C160.535 29.3111 159.453 37.9844 155.658 44.5796C155.47 44.9115 155.268 45.229 155.066 45.5609C154.187 46.9157 153.47 48.3688 152.93 49.8903C152.566 51.1293 152.363 52.4096 152.324 53.7002C152.28 55.4576 152.43 57.2144 152.771 58.9388C153.103 60.6706 153.579 62.3591 154.041 64.0042C154.783 66.3266 155.304 68.7135 155.6 71.1334C156.422 80.4849 154.157 87.9892 148.601 93.4299C145.634 96.1549 142.4 98.5725 138.946 100.646C136.188 102.36 133.546 104.254 131.038 106.317C124.168 112.523 120.719 119.94 118.093 127.156C117.53 128.7 116.996 130.244 116.505 131.745C114.127 139.851 112.233 148.092 110.834 156.423C109.795 161.921 108.727 167.593 107.413 172.932C106.288 177.579 104.974 182.024 101.54 185.069C93.6169 192.097 80.4843 189.269 71.2338 186.512L67.4095 185.358C58.9094 182.775 49.2259 180.249 41.9525 183.034C39.8957 183.838 37.9771 184.958 36.2665 186.354C34.2427 188.018 32.3468 189.832 30.595 191.78L29.6281 192.805C21.4435 201.466 11.3043 208.042 0.0581055 211.984L0.0581055 213.283C11.6969 209.319 22.1935 202.578 30.6383 193.642L31.6196 192.617C33.3254 190.719 35.1679 188.949 37.1324 187.321C38.7443 186.006 40.5505 184.95 42.4864 184.189C49.3702 181.548 58.7939 184.03 67.0198 186.556L70.8441 187.696C80.34 190.582 93.9344 193.468 102.362 185.978C106.071 182.688 107.442 178.056 108.626 173.192C109.924 167.838 111.007 162.138 112.046 156.639C113.436 148.356 115.32 140.164 117.688 132.106C118.16 130.605 118.679 129.09 119.247 127.56C121.816 120.561 125.121 113.273 131.903 107.356C134.368 105.321 136.966 103.456 139.682 101.771C143.212 99.6305 146.515 97.1354 149.539 94.3246C155.311 88.5521 157.75 80.788 156.884 71.0612C156.582 68.5643 156.051 66.1005 155.297 63.7012C154.835 62.0849 154.359 60.4253 154.041 58.7368C153.717 57.1028 153.577 55.4376 153.623 53.7724C153.65 52.589 153.834 51.4146 154.171 50.28C154.692 48.8332 155.39 47.4566 156.249 46.1815Z" fill="url(#paint12_linear_7951_539)"/>
<path opacity="0.4" d="M94.8869 70.0657C92.4047 61.5512 86.228 54.552 81.2492 49.4144C71.4936 39.4712 62.4884 33.6409 53.0935 31.0865C42.9915 28.3446 29.1951 29.6434 21.2001 38.8939C20.5074 39.6732 19.858 40.5247 19.2374 41.3472C18.0215 43.1463 16.5258 44.7394 14.807 46.0663C10.4776 49.0969 4.41639 48.13 0.0581055 45.7921L0.0581055 47.2353C4.73388 49.5299 10.925 50.3236 15.5574 47.1198C17.389 45.7079 18.9781 44.0067 20.2621 42.0832C20.8682 41.2751 21.4887 40.4525 22.1526 39.6876C29.7868 30.9133 43.006 29.5857 52.7183 32.2843C61.9688 34.7954 70.772 40.568 80.3111 50.2659C85.2467 55.3024 91.2357 62.1429 93.6458 70.4698C96.0558 78.7967 94.0931 87.5133 88.537 92.4921C85.0158 95.6526 80.2823 97.2689 75.6931 98.842C71.1039 100.415 66.4426 101.93 62.8203 105.004C59.198 108.078 56.8312 112.306 54.5655 116.405C51.7658 121.499 49.1104 126.305 44.2038 128.931C38.4312 132.034 31.3598 130.995 24.5482 129.985C23.5091 129.826 22.4989 129.667 21.4743 129.538C16.6398 128.888 5.08023 128.224 0.0581055 135.469L0.0581055 138.095C0.249228 137.627 0.475984 137.173 0.736381 136.739C5.0658 129.437 16.6109 130.129 21.3011 130.764L24.3462 131.212C31.3887 132.251 38.6621 133.333 44.8388 130.028C50.0774 127.214 52.9348 122.019 55.72 117.04C57.928 113.028 60.2082 108.886 63.6717 105.986C67.1353 103.085 71.7245 101.512 76.126 99.9965C80.874 98.2936 85.7085 96.6773 89.4174 93.358C95.3054 88.0617 97.4845 78.9122 94.8869 70.0657Z" fill="url(#paint13_linear_7951_539)"/>
</g>
</g>
<defs>
<linearGradient id="paint0_linear_7951_539" x1="199.471" y1="23.191" x2="453.911" y2="289.09" gradientUnits="userSpaceOnUse">
<stop offset="0.24" stop-color="#FD2E54"/>
<stop offset="1" stop-color="#001638"/>
</linearGradient>
<linearGradient id="paint1_linear_7951_539" x1="136.738" y1="83.2117" x2="391.178" y2="349.11" gradientUnits="userSpaceOnUse">
<stop offset="0.24" stop-color="#FD2E54"/>
<stop offset="1" stop-color="#001638"/>
</linearGradient>
<linearGradient id="paint2_linear_7951_539" x1="134.487" y1="85.3617" x2="388.941" y2="351.26" gradientUnits="userSpaceOnUse">
<stop offset="0.24" stop-color="#FD2E54"/>
<stop offset="1" stop-color="#001638"/>
</linearGradient>
<linearGradient id="paint3_linear_7951_539" x1="134.068" y1="85.7658" x2="388.508" y2="351.679" gradientUnits="userSpaceOnUse">
<stop offset="0.24" stop-color="#FD2E54"/>
<stop offset="1" stop-color="#001638"/>
</linearGradient>
<linearGradient id="paint4_linear_7951_539" x1="122.552" y1="96.7914" x2="376.992" y2="362.69" gradientUnits="userSpaceOnUse">
<stop offset="0.24" stop-color="#FD2E54"/>
<stop offset="1" stop-color="#001638"/>
</linearGradient>
<linearGradient id="paint5_linear_7951_539" x1="111.382" y1="107.471" x2="365.836" y2="373.369" gradientUnits="userSpaceOnUse">
<stop offset="0.24" stop-color="#FD2E54"/>
<stop offset="1" stop-color="#001638"/>
</linearGradient>
<linearGradient id="paint6_linear_7951_539" x1="101.193" y1="117.226" x2="355.634" y2="383.125" gradientUnits="userSpaceOnUse">
<stop offset="0.24" stop-color="#FD2E54"/>
<stop offset="1" stop-color="#001638"/>
</linearGradient>
<linearGradient id="paint7_linear_7951_539" x1="195.459" y1="38.706" x2="449.899" y2="304.619" gradientUnits="userSpaceOnUse">
<stop offset="0.24" stop-color="#FD2E54"/>
<stop offset="1" stop-color="#001638"/>
</linearGradient>
<linearGradient id="paint8_linear_7951_539" x1="156.134" y1="76.3431" x2="410.574" y2="342.242" gradientUnits="userSpaceOnUse">
<stop offset="0.24" stop-color="#FD2E54"/>
<stop offset="1" stop-color="#001638"/>
</linearGradient>
<linearGradient id="paint9_linear_7951_539" x1="106.822" y1="123.534" x2="361.262" y2="389.432" gradientUnits="userSpaceOnUse">
<stop offset="0.24" stop-color="#FD2E54"/>
<stop offset="1" stop-color="#001638"/>
</linearGradient>
<linearGradient id="paint10_linear_7951_539" x1="97.6144" y1="132.337" x2="352.069" y2="398.236" gradientUnits="userSpaceOnUse">
<stop offset="0.24" stop-color="#FD2E54"/>
<stop offset="1" stop-color="#001638"/>
</linearGradient>
<linearGradient id="paint11_linear_7951_539" x1="101.64" y1="128.484" x2="356.08" y2="394.382" gradientUnits="userSpaceOnUse">
<stop offset="0.24" stop-color="#FD2E54"/>
<stop offset="1" stop-color="#001638"/>
</linearGradient>
<linearGradient id="paint12_linear_7951_539" x1="97.8742" y1="132.092" x2="352.314" y2="397.99" gradientUnits="userSpaceOnUse">
<stop offset="0.24" stop-color="#FD2E54"/>
<stop offset="1" stop-color="#001638"/>
</linearGradient>
<linearGradient id="paint13_linear_7951_539" x1="87.1516" y1="142.353" x2="341.606" y2="408.251" gradientUnits="userSpaceOnUse">
<stop offset="0.24" stop-color="#FD2E54"/>
<stop offset="1" stop-color="#001638"/>
</linearGradient>
</defs>
</svg>
