<?xml version="1.0" encoding="utf-8"?>
<!-- Generator: Adobe Illustrator 25.0.0, SVG Export Plug-In . SVG Version: 6.00 Build 0)  -->
<svg version="1.1" id="Layer_1" xmlns="http://www.w3.org/2000/svg" xmlns:xlink="http://www.w3.org/1999/xlink" x="0px" y="0px"
	 viewBox="0 0 483 469" style="enable-background:new 0 0 483 469;" xml:space="preserve">
<style type="text/css">
	.st0{fill:#EBEBEB;}
	.st1{fill:#263238;}
	.st2{fill:#CC272B;}
	.st3{opacity:0.3;}
	.st4{fill:#FFAF9C;}
	.st5{fill:#455A64;}
	.st6{fill:#FAFAFA;}
	.st7{fill:#F49282;}
	.st8{fill:#A3A6B5;}
</style>
<g id="Layer_4">
	<circle class="st0" cx="234.4" cy="256.5" r="154.8"/>
	<path class="st1" d="M234.4,412.2c-85.9,0-155.8-69.9-155.8-155.8s69.9-155.8,155.8-155.8s155.8,69.9,155.8,155.8
		S320.2,412.2,234.4,412.2z M234.4,102.7c-84.8,0-153.8,69-153.8,153.8s69,153.8,153.8,153.8s153.8-69,153.8-153.8
		S319.1,102.7,234.4,102.7z"/>
	<path class="st2" d="M186.4,218.1l19.8-7l55-4.6l27,14.9c0,0-54.4,72.4-56.2,72.5S186.4,218.1,186.4,218.1z"/>
	<path class="st2" d="M309.7,311.6l17.5-68.7L278,215.8l-47.6,73.3l-43.1-71.3l-44.4,20.1c-2.9,1.3-5.3,3.6-6.6,6.6L96.2,353.1
		l54.3,17.5l6.2-25.2l7.1,43.5l-4.1,43.4c43.2,21.6,92.8,22,136.9,0.7l-7.6-47.7l4.4-26.1L309.7,311.6z"/>
	<rect x="254.4" y="301.2" class="st1" width="36.7" height="6.1"/>
	<path class="st2" d="M293.6,375.4c14.8,5.3,31,4.5,46.6,2.2c3.7-0.5,7.5-1.2,10.5-3.6c1-0.8,3.3-2.8,3.3-3.2
		c-0.1-1.4-2.7-3.3-4.2-4.5c-11.4-8.8-26.1-12.2-40.2-9.4c-3.7,0.7-7.3,2.1-10.5,4.1c-3.1,2.1-5.1,3.3-6.2,6.9"/>
	<g class="st3">
		<path d="M293.6,375.4c14.8,5.3,31,4.5,46.6,2.2c3.7-0.5,7.5-1.2,10.5-3.6c1-0.8,3.3-2.8,3.3-3.2c-0.1-1.4-2.7-3.3-4.2-4.5
			c-11.4-8.8-26.1-12.2-40.2-9.4c-3.7,0.7-7.3,2.1-10.5,4.1c-3.1,2.1-5.1,3.3-6.2,6.9"/>
	</g>
	<path class="st2" d="M353.9,370.7c0,0-15.6-92.9-16.5-101.1c-2.4-20.5-10.1-27.1-10.1-27.1l-36.1,110.6l2.5,22.3
		C293.6,375.4,305,358.2,353.9,370.7z"/>
	<path class="st1" d="M334,296.2c-0.2,0.8-0.4,1.5-0.7,2.3c-0.5,1.5-1.2,3.6-2.2,6.1c-2.7,6.7-5.8,13.2-9.5,19.4
		c-3.7,6.2-7.8,12.1-12.4,17.6c-1.8,2.1-3.3,3.8-4.3,4.9c-0.5,0.6-1.1,1.2-1.7,1.7c0.5-0.7,1-1.3,1.5-1.9c1-1.2,2.4-2.9,4.1-5
		c4.5-5.6,8.5-11.5,12.2-17.7c3.6-6.2,6.8-12.6,9.6-19.2c1.1-2.5,1.9-4.6,2.4-6C333.3,297.6,333.6,296.9,334,296.2z"/>
	<path class="st1" d="M163.6,386.6c0,0,0-0.1-0.1-0.3s-0.1-0.5-0.2-0.9c-0.1-0.9-0.3-2-0.5-3.5c-0.5-3.1-1.2-7.4-2.1-12.7
		c-1.9-10.7-4.5-25.5-7.5-41.9s-5.7-31.1-7.6-41.8c-0.9-5.3-1.7-9.6-2.2-12.7c-0.2-1.5-0.4-2.6-0.5-3.5c0-0.4-0.1-0.7-0.1-0.9
		c0-0.1,0-0.2,0-0.3c0,0,0,0.1,0.1,0.3s0.1,0.5,0.2,0.9c0.2,0.9,0.4,2,0.7,3.4c0.6,3,1.4,7.4,2.4,12.7c2,10.7,4.8,25.5,7.8,41.8
		s5.6,31.1,7.3,41.9c0.9,5.4,1.5,9.7,1.9,12.8c0.2,1.5,0.3,2.6,0.4,3.5c0,0.4,0.1,0.7,0.1,0.9C163.6,386.4,163.6,386.5,163.6,386.6z
		"/>
	<path class="st1" d="M312.4,274.7c0,0.4-0.1,0.7-0.2,1c-0.2,0.7-0.4,1.7-0.7,3c-0.6,2.6-1.5,6.3-2.5,10.9
		c-2.1,9.2-5.1,21.8-8.3,35.9s-5.9,26.8-7.7,36c-0.9,4.6-1.6,8.4-2.1,11c-0.2,1.2-0.4,2.2-0.5,3c-0.1,0.3-0.1,0.7-0.2,1
		c0-0.4,0-0.7,0.1-1c0.1-0.8,0.2-1.8,0.4-3c0.4-2.6,1-6.4,1.8-11c1.7-9.3,4.3-22,7.5-36s6.2-26.7,8.5-35.8c1.1-4.5,2.1-8.2,2.8-10.8
		c0.3-1.2,0.6-2.2,0.8-2.9C312.1,275.5,312.3,275.1,312.4,274.7z"/>
	<path class="st4" d="M105.1,355.6l-6.8,25.8c-2.3,8.3-0.1,17.3,5.9,23.5c0.4,0.4,0.7,0.7,1.1,1.1l0,0c7.2,6.4,17.4,8.2,26.4,4.7
		l70-27.8l-10.3-31.6l-53,15.1L105.1,355.6z"/>
	<path class="st5" d="M162.6,312.7l12.7,67.5c0.5,3,3.2,5.1,6.2,4.9l97-3.7c3.3-0.1,5.9-2.9,5.8-6.2c0,0,0-0.1,0-0.1l-2.3-63.8
		c-0.1-3.3-2.8-5.8-6-5.9H168.5c-3.3,0-6.1,2.7-6.1,6.1C162.5,312,162.5,312.3,162.6,312.7z"/>
	<path class="st4" d="M268.5,340.2L268.5,340.2c-3.7,0-7.1,2.3-8.4,5.8c-1.4,3.7-3.5,7.9-5.7,9.2c-4.2,2.3-11.5,4.1-15.3,2.2
		s-19.1-15.7-21.8-14.2s-5,5-2.3,8s16.8,12.2,14.1,15.3s-32.5-10.4-37.1-9.2s-7.3,4-4.6,5.8s22.9,9.5,24.1,12.2c0,0-30.6-8-31.7-6.1
		s-3.1,5,0,6.1s29.4,8,31.7,9.2s10.2,3.4,11.8,3.4c0.8,0,6.8,2,12.3,3.9c6.2,2.1,12.9,2,19-0.5l3.1-1.3c4.8-2,7.9-6.8,7.5-12
		l-0.6-10.4l3.3-8.6L268.5,340.2z"/>
	<path class="st4" d="M244,393.4c0,0,55.8,50.5,74.6,50.6c19.8,0.1,30.9-20.4,28.8-33.2c-1.1-6.8-4.1-42.4-4.1-42.4
		c-13.3-3.6-33.1-5.2-47.2,4.1l5.1,20.8l-37.2-18L244,393.4z"/>
	<path class="st1" d="M353.9,370.7c-0.2,0-0.4,0-0.6-0.1l-1.8-0.4c-1.6-0.4-3.8-0.9-6.6-1.6c-7.3-1.8-14.7-2.6-22.2-2.6
		c-4.1,0.1-8.2,0.6-12.2,1.4c-3.3,0.6-6.5,1.5-9.6,2.8c-2.1,0.9-4,2.1-5.7,3.5c-1.2,1-1.8,1.7-1.8,1.7c0.1-0.2,0.2-0.4,0.4-0.5
		c0.4-0.5,0.8-0.9,1.3-1.4c1.7-1.5,3.6-2.8,5.7-3.8c3.1-1.4,6.3-2.4,9.7-3c4.1-0.8,8.2-1.3,12.3-1.5c7.5-0.1,15,0.9,22.3,2.8
		c2.8,0.7,5,1.3,6.6,1.8l1.8,0.5C353.5,370.6,353.8,370.6,353.9,370.7z"/>
	<path class="st6" d="M151.5,148.8l-0.1-0.1c21.1-28.3,15.3-68.4-13-89.6s-68.4-15.3-89.6,13s-15.3,68.4,13,89.6
		c21.9,16.4,51.8,17,74.4,1.5l22,8.8L151.5,148.8z"/>
	<path class="st1" d="M100.1,46.4c-0.4,0-0.7,0-1.1,0l-3.2,0.1c-0.7,0-1.5,0-2.4,0.1L90.5,47l-3.3,0.5l-3.7,0.9
		C77,50,70.9,52.6,65.3,56.2c-16.7,10.6-27.5,28.3-29.3,48c-0.2,2.9-0.3,5.8-0.2,8.7c0.1,1.5,0.1,3,0.3,4.5s0.5,3,0.7,4.5
		c1.1,6.2,3.2,12.2,6.1,17.8c3.1,5.9,7,11.3,11.6,16c4.9,4.8,10.6,8.9,16.8,12c6.4,3.3,13.3,5.4,20.4,6.3c1.8,0.3,3.6,0.4,5.4,0.5
		c1.8,0.1,3.7,0.2,5.5,0.1c3.7-0.2,7.4-0.6,11-1.4c7.8-1.7,15.3-4.8,21.9-9.2l-0.7,0.1l22.3,9l1.3,0.5l-0.4-1.4
		c-2.2-8.2-4.4-16.2-6.6-23.9l-0.1,0.6c6.1-8,10.1-17.4,11.9-27.3c0.9-4.6,1.2-9.3,0.9-14c0-2.3-0.2-4.5-0.6-6.7
		c-0.2-1.1-0.3-2.2-0.5-3.3c-0.2-1.1-0.5-2.1-0.8-3.2c-3.7-14.7-12.6-27.6-24.9-36.4c-4.6-3.3-9.6-5.9-14.8-7.8l-3.3-1.2l-3.2-0.8
		l-2.9-0.7c-0.9-0.2-1.8-0.3-2.7-0.4c-1.7-0.2-3.2-0.5-4.5-0.6l-3.3-0.1h-2C100.5,46.4,100.3,46.4,100.1,46.4
		c0.2,0.1,0.5,0.1,0.7,0.1l2,0.2l3.3,0.2c1.3,0.1,2.8,0.4,4.4,0.7c24.8,4.3,44.7,22.8,50.8,47.1c0.2,1,0.6,2,0.8,3.1
		s0.3,2.1,0.5,3.2c0.4,2.2,0.6,4.4,0.6,6.6c0.3,4.6-0.1,9.2-0.9,13.7c-1.8,9.7-5.8,18.8-11.8,26.7l-0.2,0.3l0.1,0.3
		c2.1,7.7,4.3,15.7,6.5,23.9l0.9-0.9l-22.3-9l-0.4-0.1l-0.3,0.2c-9.6,6.3-20.7,9.9-32.2,10.4c-1.8,0.1-3.6,0-5.4-0.1
		c-1.8,0-3.6-0.2-5.3-0.4c-7-0.8-13.7-2.9-20-6.1c-6-3.1-11.6-7-16.4-11.7c-4.5-4.6-8.4-9.9-11.4-15.6c-2.8-5.5-4.9-11.3-6-17.4
		c-0.2-1.5-0.5-3-0.7-4.4s-0.2-2.9-0.3-4.4C36.3,99.5,40,86.2,47.5,75c4.8-7.2,11-13.4,18.3-18.1c5.5-3.6,11.5-6.3,17.8-8l3.7-1
		l3.3-0.5l2.8-0.5c0.9-0.1,1.7-0.1,2.4-0.2l3.3-0.2C99.4,46.5,99.7,46.4,100.1,46.4z"/>
	<path class="st6" d="M331.5,205.6l0.1-0.1c-21.1-28.3-15.3-68.4,13-89.6c28.3-21.1,68.4-15.3,89.6,13c21.1,28.3,15.3,68.4-13,89.6
		c-21.9,16.4-51.8,17-74.4,1.5l-22,8.8L331.5,205.6z"/>
	<path class="st1" d="M383,103.2c0.4,0,0.7,0,1.1,0l3.2,0.1c0.7,0,1.5,0,2.4,0.1l2.9,0.4l3.3,0.5l3.7,0.9c6.4,1.6,12.5,4.3,18,7.8
		c16.7,10.6,27.5,28.3,29.3,48c0.2,2.9,0.3,5.8,0.2,8.7c-0.1,1.5-0.1,3-0.3,4.5s-0.5,3-0.7,4.5c-1.1,6.2-3.2,12.2-6.1,17.8
		c-3.1,5.9-7,11.3-11.6,16c-4.9,4.8-10.6,8.9-16.8,12c-6.4,3.3-13.3,5.4-20.4,6.3c-1.8,0.3-3.6,0.4-5.5,0.5
		c-1.8,0.1-3.7,0.2-5.5,0.1c-3.7-0.2-7.4-0.6-11-1.4c-7.8-1.7-15.3-4.8-21.9-9.2l0.7,0.1l-22.3,9l-1.3,0.5l0.4-1.4
		c2.3-8.2,4.4-16.2,6.6-23.9l0.1,0.6c-6.1-8-10.1-17.4-11.9-27.3c-0.9-4.6-1.2-9.3-0.9-14c0-2.3,0.2-4.5,0.6-6.7
		c0.2-1.1,0.3-2.2,0.5-3.3c0.2-1.1,0.5-2.1,0.8-3.2c3.7-14.7,12.6-27.6,24.9-36.3c4.6-3.3,9.5-5.9,14.8-7.8l3.4-1.2l3.2-0.8l2.9-0.7
		c0.9-0.2,1.8-0.3,2.7-0.4c1.7-0.2,3.2-0.5,4.5-0.6l3.3-0.1h2C382.5,103.2,382.7,103.2,383,103.2c-0.3,0.1-0.5,0.1-0.7,0.1l-2,0.2
		l-3.3,0.2c-1.3,0.1-2.8,0.4-4.4,0.7c-24.8,4.3-44.7,22.8-50.8,47.1c-0.2,1-0.6,2.1-0.8,3.1s-0.3,2.1-0.5,3.2
		c-0.4,2.2-0.6,4.4-0.6,6.6c-0.3,4.6,0.1,9.2,0.9,13.7c1.8,9.7,5.8,18.9,11.8,26.7l0.2,0.3l-0.1,0.3c-2.1,7.7-4.3,15.7-6.5,23.9
		l-0.9-0.9l22.3-9l0.4-0.1l0.3,0.2c9.6,6.3,20.7,9.9,32.2,10.4c1.8,0.1,3.6,0,5.4-0.1c1.8,0,3.6-0.2,5.3-0.4c7-0.8,13.7-2.9,20-6.1
		c6-3.1,11.6-7,16.4-11.7c4.5-4.6,8.4-9.9,11.4-15.6c2.8-5.5,4.9-11.3,6-17.4c0.2-1.5,0.5-2.9,0.7-4.4s0.2-2.9,0.3-4.4
		c1.1-22.4-9.8-43.8-28.7-56c-5.5-3.6-11.5-6.3-17.8-8l-3.7-1l-3.3-0.5l-2.8-0.5c-0.9-0.1-1.7-0.1-2.4-0.2l-3.2-0.2
		C383.7,103.3,383.4,103.2,383,103.2z"/>
	<path class="st4" d="M258.3,91.4c4.9,0.5,8.6,4.7,8.5,9.6l0,0L261.1,217c-1.1,6.6-17.7,18.9-33.9,18.5c0,0-21.6-9-21.8-23.4
		c-0.3-24-0.2-15.6-0.2-15.5s-20.6-3.5-24.9-30.4c-2.1-13.4-1.4-35.4-0.2-53.4c1-16.2,11.8-36,27.9-34.2L258.3,91.4z"/>
	<path class="st1" d="M189.5,132.2c0,1.9,1.5,3.4,3.3,3.5c1.8,0.2,3.4-1.2,3.6-3c0,0,0-0.1,0-0.1c0-1.9-1.4-3.4-3.3-3.5
		C191.3,129,189.7,130.3,189.5,132.2C189.5,132.2,189.5,132.2,189.5,132.2z"/>
	<path class="st1" d="M184.8,125.3c0.4,0.4,3-1.5,6.8-1.5s6.4,1.9,6.9,1.4c0.2-0.2-0.2-1-1.4-1.9c-1.6-1.1-3.5-1.7-5.5-1.7
		c-1.9,0-3.8,0.6-5.4,1.7C185,124.2,184.6,125.1,184.8,125.3z"/>
	<path class="st1" d="M225.1,133.7c0,1.9,1.5,3.4,3.3,3.5c1.8,0.1,3.4-1.2,3.6-3.1c0,0,0,0,0-0.1c0-1.9-1.4-3.4-3.3-3.5
		C226.8,130.4,225.2,131.8,225.1,133.7C225.1,133.6,225.1,133.7,225.1,133.7z"/>
	<path class="st1" d="M221.7,125.3c0.4,0.4,3-1.5,6.8-1.5s6.4,1.9,6.9,1.4c0.2-0.2-0.2-1-1.4-1.9c-1.6-1.1-3.5-1.7-5.5-1.7
		c-1.9,0-3.8,0.6-5.4,1.7C221.9,124.2,221.5,125.1,221.7,125.3z"/>
	<path class="st1" d="M207.8,152.6c0-0.2-2.3-0.6-6-1.1c-1-0.1-1.9-0.3-2-0.9c-0.1-1,0.1-2,0.6-2.8l2.8-7.2
		c3.9-10.3,6.8-18.8,6.4-18.9s-3.9,8.1-7.9,18.4c-0.9,2.5-1.9,5-2.7,7.3c-0.4,1.1-1,2.3-0.5,3.7c0.3,0.7,0.9,1.2,1.6,1.4
		c0.5,0.1,1.1,0.2,1.6,0.2C205.5,152.8,207.8,152.9,207.8,152.6z"/>
	<path class="st7" d="M205.2,196.7c12.7,0.2,25.2-3.1,36.1-9.6c0,0-9,19-36,16.4L205.2,196.7z"/>
	<path class="st1" d="M230.8,161.4c-0.5-0.4-2.6,3.1-7.1,3.7s-7.9-2-8.2-1.6c-0.2,0.2,0.4,1.2,1.9,2.2c2,1.3,4.4,1.8,6.7,1.5
		c2.3-0.3,4.3-1.5,5.7-3.2C230.9,162.6,231.1,161.5,230.8,161.4z"/>
	<path class="st1" d="M219.6,116.7c0.5,1,4.1,0.1,8.5,0.2s8,0.9,8.5,0c0.2-0.5-0.5-1.3-2-2.2c-4.1-2.1-8.9-2.1-13-0.2
		C220.1,115.4,219.4,116.3,219.6,116.7z"/>
	<path class="st1" d="M185.2,119.1c0.8,0.8,4,0,7.8-0.1s7.1,0.6,7.8-0.3c0.3-0.4-0.2-1.3-1.6-2.1c-4-1.9-8.7-1.8-12.6,0.3
		C185.2,117.8,184.8,118.7,185.2,119.1z"/>
	<path class="st1" d="M277.4,182.4c0,0-0.2,0-0.5-0.1c-0.4-0.1-0.9-0.2-1.3-0.4c-1.6-0.5-3.1-1.3-4.3-2.4c-1.9-1.7-2.9-4.2-2.6-6.8
		c0.2-1.5,1-2.9,2.3-3.8c0.8-0.5,1.7-0.5,2.5-0.1c0.9,0.4,1.3,1.4,1.1,2.3c-0.1,0.5-0.5,0.8-0.9,1.1c-0.4,0.2-0.8,0.3-1.3,0.3
		c-0.8,0-1.6-0.1-2.4-0.5c-1.4-0.5-2.6-1.4-3.7-2.4c-1.8-1.8-2.9-4.1-3.1-6.6c-0.1-1.7,0.1-3.3,0.8-4.9c0.2-0.4,0.4-0.8,0.6-1.2
		c0.2-0.3,0.3-0.4,0.3-0.4s-0.3,0.6-0.7,1.7c-0.5,1.5-0.7,3.2-0.5,4.8c0.2,2.4,1.3,4.6,3.1,6.3c1,1,2.2,1.8,3.5,2.3
		c0.7,0.3,1.4,0.4,2.1,0.4c0.7,0.1,1.3-0.3,1.6-1c0.1-0.6-0.2-1.3-0.8-1.6c-0.6-0.3-1.3-0.2-1.9,0.1c-1.1,0.7-1.9,2-2.1,3.3
		c-0.2,1.2,0,2.5,0.5,3.7c0.4,1,1.1,1.9,1.9,2.7c1.2,1.1,2.6,2,4.1,2.5C276.8,182.2,277.4,182.4,277.4,182.4z"/>
	<path class="st1" d="M212,62.8c-3.4-2.2-4.6-6.5-2.9-10.2c-1.1-1.6,0.2-4,2-4.6s3.9-0.1,5.8,0.4c-0.5-0.9,0.9-1.7,1.9-1.8l7.1-1.1
		c-3.3-0.9-6-3.2-7.4-6.4c-1.3-3.2-1.7-6.6-1-10c0.1-1,0.5-1.9,1.3-2.5c2.2,2.5,3.8,5.3,5,8.4c2,0.1,3.8,1,5.1,2.6
		c0.4-1,1.6-1.4,2.6-1c0.1,0.1,0.2,0.1,0.4,0.2c1.5-4.2,4.4-8.7,8.8-9.2c-1.4-2,1.1-4.3,3.3-5.4c1.5-0.9,3.2-1.5,5-1.7
		c1.8-0.2,3.6,0.6,4.6,2.1c0.9,1.5,0.1,3.9-1.7,4.2c1.8,1.3,2.6,3.7,1.7,5.8c1.4-1.7,3.9-2.2,5.9-1.2c3.1-1.3,6.4-1.8,9.7-1.4
		c0.9,0,1.7,0.3,2.4,0.8c0.5,0.4,0.8,1,1.4,1.4c0.8,0.5,1.7,0.7,2.6,0.7c2.1,0.1,4.2,0.9,5.9,2.2c1.7,1.4,2.3,3.7,1.6,5.8
		c4.9,1.6,9.8-4.1,14.9-3.1c3,0.6,5,3.3,6.3,6c-2.5,1-5.2,1.4-7.9,1.2c-0.4,1.5-1.7,2.6-3.3,2.6c0.6,0.9,0.4,2.1-0.5,2.8
		c-0.2,0.1-0.4,0.2-0.7,0.3c3-1,6.4-0.6,9.5,0.2c4.7,1.1,9.9,3.6,11,8.4c0.3,1.7,0.3,3.4,0,5.1c-0.3,2.6-1.6,5.9-4.1,5.4
		c-1.6-0.3-2.4-2-3.2-3.3c-1.9-3-4.8-5.2-8.3-6c-1.2,1.2,1,2.7,2,4.1s0.6,3.2,0.8,4.9c0.4,2.5,2.2,4.5,3.3,6.8
		c2.4,4.9,1.1,10.8-0.2,16.1c-0.4,1.4-2,3.2-2.9,2c1.8,0.3,3,2.2,3,4.1c-0.1,1.8-0.7,3.6-1.7,5.2c-0.4,0.7-0.8,1.5-1.6,1.7
		c-1.1,0.3-2-0.9-2.6-1.8l-4.8-8c0.4,1.8,0.3,3.7-0.1,5.5c-0.8,3.5-2.9,7-6.3,8.1c-2.4,0.7-4.9,0.1-7.2-0.5"/>
	<path class="st1" d="M265.1,146.6c-1-0.4-5.3,1.3-6,0.4c-3.5-4.6-5.4-17.6-6.3-23.3s2.7-12.1,2.1-17.8c-0.4-4.6-1.3-9.4-4.3-12.9
		c-1.9-2-4.3-3.6-7-4.5c-8.2-2.9-17.3-1.7-24.5,3.3c-2.9,2-5.6,4.8-9.1,5.1s-6.7-1.8-9.7-3.6s-6.7-3.4-9.9-1.9
		c-1.2,0.6-2.3,1.5-3.2,2.6c-2.2,2.5-6.7,13.6-6.8,17.9c0,0-2.2-10.2,1.6-19.6c4.6-11.4,17.1-24.2,37-27.4
		c31.9-5.2,46.8,12.6,52.5,25.2c2.4,5.4,4.5,19.7,2.7,30.7C272.7,129.9,269.6,138.6,265.1,146.6z"/>
	<path class="st2" d="M273.7,94.5c-0.5,0.2-1.8-3.4-5-8.6c-1.8-3-4-5.8-6.3-8.4c-2.8-3.2-6.1-5.9-9.8-8c-3.8-1.9-7.8-3.3-12-3.9
		c-3.4-0.5-6.9-0.7-10.4-0.4c-6,0.5-9.6,1.9-9.7,1.4c-0.1-0.2,0.7-0.8,2.3-1.5c2.3-1,4.7-1.7,7.2-2.1c3.7-0.6,7.4-0.8,11.1-0.3
		c4.6,0.5,9,1.9,13.1,4c4,2.3,7.6,5.3,10.5,8.8c2.4,2.8,4.4,5.9,6,9.2C273.5,90.5,274,94.4,273.7,94.5z"/>
	<path class="st5" d="M242.5,66.8c-0.6,0.1-1.3,0.2-1.9,0.2c-1.7,0.2-3.5,0.5-5.2,0.9c-11.4,2.6-21.1,10.2-26.2,20.8
		c-0.8,1.6-1.4,3.2-2,4.8c-0.2,0.6-0.4,1.2-0.6,1.8c0-0.2,0-0.3,0.1-0.5c0.1-0.3,0.2-0.8,0.3-1.4c0.5-1.7,1.1-3.4,1.8-5
		c4.9-10.9,14.8-18.7,26.5-21.1c1.7-0.4,3.5-0.6,5.3-0.7c0.6,0,1.1,0,1.4,0S242.5,66.8,242.5,66.8z"/>
	<path class="st5" d="M251,70.7c-1.2,0.7-2.5,1.4-3.7,2c-6,3.2-11.6,7.2-16.7,11.7c-2,1.7-3.1,2.9-3.2,2.8c0.2-0.3,0.4-0.6,0.7-0.9
		c0.5-0.6,1.2-1.3,2.2-2.2c5-4.8,10.6-8.8,16.8-11.8c1.2-0.6,2.2-1,2.8-1.3C250.3,70.8,250.6,70.7,251,70.7z"/>
	<path class="st5" d="M268.3,85c0,0.3,0,0.7-0.1,1c-0.1,0.7-0.2,1.7-0.5,2.9c-1.4,6.3-4,12.3-7.7,17.5c-0.7,1-1.3,1.8-1.8,2.3
		s-0.7,0.8-0.7,0.8s0.8-1.3,2.1-3.3c1.7-2.7,3.2-5.5,4.5-8.4c1.3-2.9,2.3-5.9,3.1-9C267.9,86.4,268.2,84.9,268.3,85z"/>
	<path class="st5" d="M259.4,123.5c-0.1-0.1,1.3-1.6,3.2-4.3c1.1-1.6,2.1-3.2,2.9-4.9c1.1-2.1,2-4.2,2.7-6.5
		c0.7-2.2,1.3-4.5,1.7-6.8c0.3-1.9,0.5-3.8,0.6-5.7c0.1-3.3-0.1-5.3,0-5.3c0.1,0.5,0.2,0.9,0.2,1.4c0.2,1.3,0.2,2.6,0.2,3.9
		c0,1.9-0.2,3.9-0.4,5.8c-0.4,2.3-0.9,4.7-1.6,6.9c-0.8,2.2-1.7,4.4-2.8,6.5c-0.9,1.7-1.9,3.3-3.1,4.9c-0.8,1.1-1.6,2.1-2.5,3
		C260.1,122.9,259.8,123.2,259.4,123.5z"/>
	<path class="st1" d="M157.6,95.2c0,0,0.5,0.5,1.4,1.4c1.3,1.3,2.9,2.3,4.6,2.9c2.5,1,5.3,0.8,7.7-0.5c1.3-0.8,2.4-2.1,2.9-3.5
		c0.6-1.6,0.4-3.3-0.5-4.7c-0.4-0.7-1.2-1.1-2-1.1c-0.8,0-1.4,0.6-1.5,1.3c-0.3,1.5,0.1,3.1,1,4.3c0.8,1.2,1.9,2.1,3.2,2.6
		c1.2,0.5,2.4,0.5,3.6,0.3c1.8-0.4,3.3-1.5,4.4-3c0.4-0.6,0.7-1.2,0.9-1.8c0,0.2,0,0.4-0.1,0.5c-0.1,0.5-0.4,1-0.6,1.4
		c-1,1.6-2.6,2.8-4.5,3.3c-1.3,0.3-2.7,0.3-3.9-0.2c-1.4-0.5-2.7-1.5-3.6-2.8c-1-1.4-1.4-3.1-1.2-4.8c0.1-0.5,0.4-0.9,0.7-1.2
		c0.4-0.3,0.9-0.5,1.4-0.5c1,0,2,0.5,2.5,1.3c1,1.6,1.2,3.5,0.6,5.3c-0.6,1.6-1.7,3-3.1,3.8c-2.5,1.4-5.5,1.5-8.2,0.4
		c-1.7-0.7-3.3-1.8-4.6-3.2c-0.4-0.4-0.7-0.7-1-1.1C157.7,95.4,157.6,95.2,157.6,95.2z"/>
	<path class="st1" d="M321.2,87.3c-0.2,0.1-0.5,0.1-0.7,0.2c-0.5,0.1-1.2,0.2-2.1,0.3c-2.6,0.4-5.2,0.3-7.7-0.3
		c-1.8-0.4-3.4-1.3-4.8-2.5c-1.6-1.4-2.6-3.4-2.8-5.5c-0.1-1.2,0.1-2.3,0.6-3.4c0.5-1.1,1.4-2,2.5-2.6c2.3-1.2,5-1.2,7.3,0
		c1.2,0.6,2,1.9,2,3.2c-0.1,1.3-1,2.5-2.2,3c-1.1,0.5-2.3,0.7-3.5,0.6c-1.1-0.1-2.2-0.3-3.3-0.6c-6.4-1.7-11.2-6.9-12.5-13.4
		c-0.1-0.7-0.2-1.4-0.2-2.1c0-0.2,0-0.5,0-0.7c0.1,0,0.1,1,0.5,2.8c0.6,2.5,1.7,4.8,3.2,6.9c2.3,3,5.6,5.1,9.2,6.1
		c1.1,0.3,2.1,0.4,3.2,0.5c1.1,0.1,2.2-0.1,3.2-0.5c1.4-0.5,2.2-2.1,1.7-3.5c-0.3-0.7-0.8-1.3-1.6-1.6c-2.1-1.1-4.6-1.1-6.6,0
		c-1.9,1.1-3,3.2-2.8,5.4c0.1,2,1,3.8,2.5,5.2c1.3,1.2,2.9,2,4.6,2.4c2.5,0.6,5.1,0.8,7.6,0.5l2.1-0.2
		C320.8,87.3,321,87.3,321.2,87.3z"/>
	<path class="st1" d="M196.6,29c-0.3,0.8-0.6,1.6-0.7,2.5c-0.3,2.3,0.4,4.6,1.9,6.4c2.3,2.6,5.9,3.7,9.2,2.8
		c1.8-0.5,3.7-1.6,4.3-3.6c0.3-1,0.1-2-0.4-2.9c-0.5-0.9-1.6-1.3-2.6-1.1c-1,0.3-1.8,1-2.2,2c-0.4,1-0.5,2-0.1,3
		c0.7,1.9,2,3.5,3.6,4.6c2.7,2.1,6,3.4,9.5,3.7c2.3,0.2,4.7,0,6.9-0.6c1.6-0.5,2.4-0.9,2.4-0.8c-0.2,0.1-0.4,0.2-0.6,0.3
		c-0.6,0.3-1.2,0.5-1.8,0.7c-2.3,0.7-4.6,1-7,0.8c-3.6-0.3-7-1.5-9.8-3.7c-1.8-1.2-3.1-2.9-3.9-4.9c-0.4-1.1-0.4-2.3,0.1-3.4
		c0.5-1.1,1.5-2,2.6-2.3c1.3-0.3,2.6,0.2,3.2,1.3c0.7,1,0.8,2.2,0.5,3.4c-0.4,1.1-1.1,2-2,2.7c-0.8,0.6-1.8,1.1-2.8,1.3
		c-3.6,0.9-7.3-0.2-9.7-3c-1.5-1.9-2.2-4.4-1.8-6.8c0.1-0.6,0.3-1.3,0.6-1.9C196.3,29.4,196.4,29.2,196.6,29z"/>
	<path class="st4" d="M258.5,142.6c0.3-6,6.8-10,12-7c2.8,1.6,5,4.9,4.8,11.3c-0.7,16.9-17.5,12.7-17.5,12.2
		C257.7,158.9,258.2,149.6,258.5,142.6z"/>
	<path class="st7" d="M263.1,153c0.1-0.1,0.3,0.2,0.8,0.5c0.7,0.3,1.5,0.4,2.2,0.1c1.8-0.6,3.4-3.4,3.6-6.4c0.1-1.4-0.1-2.9-0.6-4.2
		c-0.3-1.1-1.1-2-2.1-2.4c-0.7-0.2-1.4,0.1-1.8,0.7c-0.2,0.5-0.2,0.8-0.2,0.8s-0.4-0.3-0.2-1c0.1-0.4,0.4-0.8,0.7-1
		c0.5-0.3,1.1-0.5,1.6-0.4c1.4,0.3,2.5,1.4,3,2.8c0.7,1.5,0.9,3.1,0.8,4.8c-0.2,3.4-2.1,6.5-4.6,7.1c-0.9,0.2-1.9,0-2.7-0.6
		C263.1,153.4,263.1,153,263.1,153z"/>
	<polygon class="st1" points="205.3,200.8 224.6,229.2 208.9,245.5 194,212.6 	"/>
	<polygon class="st1" points="261.7,199.1 228.5,229.5 244.5,246.8 272.1,212.5 	"/>
	<path class="st1" d="M136.7,107.4c-19.2-0.2-38.5,0.2-57.7,1c-5.5,0.2-10.9,0.5-16.4,0.8c-1.3,0.1-1.3,2.1,0,2
		c19.2-1.1,38.4-1.7,57.7-1.8c5.5,0,10.9,0,16.4,0c0.5-0.1,1-0.5,0.9-1.1C137.6,107.8,137.2,107.4,136.7,107.4z"/>
	<path class="st2" d="M136.8,107.2c-4.7-0.3-9.4-1.4-13.7-3.5c-1.7-0.8-3.5-2.2-5.4-1.9s-2.9,1.9-3.8,3.4c-1.3,2-2.6,4.1-3.9,6.2
		c-1.1,1.8-2.3,3.6-3.6,5.2c-1.2,1.5-2.9,2.6-4.8,3c-2,0.3-4.1-0.2-5.9-1.2c-7.7-4.4-7.7-15.1-12.2-21.9c-2-2.9-5.3-6.3-9.2-5.1
		c-3.2,1-4.5,4.7-5.2,7.7c-2.6,10.8-4.5,21.7-5.7,32.8c-0.2,1.3,1.9,1.3,2,0c1-9.6,2.6-19.1,4.7-28.5c0.7-3,1.2-8.4,4.4-9.9
		c4-1.9,7.5,4,8.9,6.9c3.3,6.8,4.3,15.9,11.7,19.9c3.1,1.8,6.9,1.8,10,0.1c3.2-2,5.2-5.6,7.1-8.8c1.3-2.1,2.6-4.4,4.1-6.4
		c0.8-1,1.7-1.6,3-1.1s2.3,1.2,3.4,1.7c4.4,2,9.2,3.2,14.1,3.5C138.1,109.3,138.1,107.3,136.8,107.2z"/>
	<path class="st2" d="M396.9,152.7l-0.2-4.5c0-0.6-0.5-1-1-1c-0.2,0-0.3,0-0.4,0.1c-0.1-0.4-0.5-0.7-0.9-0.6l-15.5,0.1
		c-2,0-4.7-0.4-6.6,0.6c-1.5,0.9-2,2.6-2,4.2s-0.1,3.6,0.9,5.1c1.1,1.7,3.1,1.7,5,1.7c5.3,0.1,10.5,0.1,15.8,0.1
		c2,0,4.7,0.3,5.1-2.3C397.1,155.1,397.1,153.9,396.9,152.7z M395,155.7c-0.2,0.8-0.4,0.9-1.2,0.9s-1.3,0-2,0h-3.9
		c-2.6,0-5.2,0-7.9,0l-3.9-0.1c-1,0-2.5,0.2-3.2-0.7c-1-1.2-0.9-3.9-0.5-5.3s1.4-1.5,2.7-1.6s2.5,0,3.8,0l15.5-0.1
		c0.1,0,0.3,0,0.4-0.1l0.1,3.4C395.1,153.2,395.1,154.4,395,155.7L395,155.7z"/>
	<path class="st1" d="M396.9,132.5l-0.2-4.5c0-0.6-0.5-1-1-1c-0.2,0-0.3,0-0.4,0.1c-0.1-0.4-0.5-0.7-0.9-0.6l-15.5,0.2
		c-2,0-4.7-0.4-6.6,0.7c-1.5,0.9-2,2.6-2,4.2s-0.1,3.6,0.9,5.1c1.1,1.7,3.1,1.7,5,1.7c5.3,0.1,10.5,0.1,15.8,0.1
		c2,0,4.7,0.3,5.1-2.3C397.1,134.9,397.1,133.7,396.9,132.5z M395,135.5c-0.2,0.8-0.4,0.9-1.2,0.9s-1.3,0-2,0h-3.9
		c-2.6,0-5.2,0-7.9,0l-3.9-0.1c-1,0-2.5,0.2-3.2-0.7c-1-1.2-0.9-3.9-0.5-5.3s1.4-1.5,2.7-1.6s2.5,0,3.8,0l15.5-0.1
		c0.1,0,0.3,0,0.4-0.1l0.1,3.4C395.1,133,395.1,134.2,395,135.5L395,135.5z"/>
	<path class="st2" d="M396.9,174.6l-0.2-4.5c0-0.6-0.5-1-1-1c-0.2,0-0.3,0-0.5,0.1c-0.1-0.4-0.5-0.7-0.9-0.6l-15.5,0.1
		c-2,0-4.7-0.4-6.6,0.6c-1.5,0.9-2,2.6-2,4.2s-0.1,3.6,0.9,5.1c1.1,1.7,3.1,1.7,5,1.7c5.3,0.1,10.5,0.1,15.8,0.1
		c2,0,4.7,0.3,5.1-2.3C397.1,177,397.1,175.8,396.9,174.6z M395,177.6c-0.2,0.8-0.4,0.9-1.2,0.9s-1.3,0-2,0c-1.3,0-2.6,0-3.9,0
		c-2.6,0-5.2,0-7.9,0c-1.3,0-2.6,0-3.9-0.1c-1,0-2.5,0.2-3.2-0.7c-1-1.2-0.9-3.9-0.5-5.3s1.4-1.5,2.7-1.6s2.5,0,3.8,0l15.5-0.1
		c0.1,0,0.3,0,0.4-0.1l0.1,3.4C395.1,175.2,395.1,176.4,395,177.6L395,177.6z"/>
	<path class="st2" d="M396.9,196.5l-0.2-4.5c0-0.6-0.5-1-1-1c-0.2,0-0.3,0-0.4,0.1c-0.1-0.4-0.5-0.7-0.9-0.6l-15.5,0.1
		c-2,0-4.7-0.4-6.6,0.6c-1.5,0.9-2,2.6-2,4.2s-0.1,3.6,0.9,5.1c1.1,1.7,3.1,1.7,5,1.7c5.3,0.1,10.5,0.1,15.8,0.1
		c2,0,4.7,0.3,5.1-2.3C397.1,199,397.1,197.7,396.9,196.5z M395,199.5c-0.2,0.8-0.4,0.9-1.2,0.9s-1.3,0-2,0h-3.9c-2.6,0-5.2,0-7.9,0
		l-3.9-0.1c-1,0-2.5,0.2-3.2-0.7c-1-1.2-0.9-3.9-0.5-5.3s1.4-1.5,2.7-1.6s2.5,0,3.8,0l15.5-0.1c0.1,0,0.3,0,0.4-0.1l0.1,3.4
		C395.1,197.1,395.1,198.3,395,199.5L395,199.5z"/>
	<path class="st1" d="M365.1,131.9c-4.3-0.2-8.6-0.1-12.9,0.2c-3.9,0.2-7.7,0.7-11.5,1.5c-3.1,0.8-5.6,2.7-6.1,6.1
		c-0.2,1.7-0.1,3.4,0.1,5.1c0.2,2.1,0.5,4.2,0.7,6.3l1.7,14.6c0,0.4,0.3,0.8,0.7,0.9c-2.7,1.8-4.4,4.9-4.4,8.2
		c0,3.4,2.2,6.3,5.4,7.4c7.4,2.2,11.7-7.7,8.5-13.4c-1.6-3-5-4.5-8.3-3.7c-0.6-4.8-1.1-9.6-1.7-14.4c-0.3-2.4-0.6-4.7-0.8-7.1
		c-0.2-2-0.4-4.5,1.1-6.1c1.3-1.4,3.3-1.9,5.1-2.2c2.4-0.4,4.8-0.7,7.2-0.9c5-0.5,10-0.6,15-0.4
		C366.4,133.9,366.4,131.9,365.1,131.9z M339.6,167c2.1-0.5,4.3,0.3,5.6,2c1.7,2.1,1.7,5.1,0.7,7.5s-2.9,4.3-5.6,4
		c-2.6-0.4-4.5-2.4-4.8-5c-0.3-2.9,1.2-5.8,3.7-7.3C339.6,168,339.8,167.4,339.6,167z"/>
	<path class="st1" d="M428.4,149.2c-0.9-0.9-2.4,0.5-1.4,1.4c1.4,1.4,2,3.5,1.5,5.4c-0.5,1.9-2.1,3.4-4,3.8c-1.9,0.5-4-0.2-5.2-1.8
		c-1.3-1.5-1.6-3.6-0.8-5.5c1-2.1,3.3-3.4,5.6-3.2c0.6,0,1-0.4,1-1s-0.4-1-1-1c-2.8-0.2-5.5,1.1-7,3.5c-1.4,2.4-1.4,5.4,0.1,7.7
		c1.4,2.3,4,3.6,6.7,3.3c2.7-0.2,5.1-1.9,6.2-4.4C431.3,154.6,430.6,151.4,428.4,149.2z"/>
	<path class="st1" d="M367.7,151.1c-5.5-0.2-11.1,0-16.6,0.7c-1.5,0.1-3,0.3-4.5,0.6c-0.9,0.2-1.7,0.9-1.8,1.8
		c-0.1,1.5-0.1,2.9,0.1,4.4l0.2,4.9c0.1,1.3,2.1,1.3,2,0c-0.1-2.7-0.3-5.3-0.4-8c0-0.7-0.1-1,0.6-1.3c0.8-0.2,1.6-0.3,2.4-0.3
		c1.4-0.2,2.8-0.3,4.2-0.4c4.5-0.5,9.1-0.6,13.7-0.4C369,153.2,369,151.2,367.7,151.1z"/>
	<path class="st1" d="M367.5,175l-15.1,0.1c-0.6,0-1,0.4-1,1s0.4,1,1,1l15.1-0.1c0.6,0,1-0.4,1-1S368,175,367.5,175z"/>
	<path class="st1" d="M367.9,196.9l-19.7,0.1l0.4-10.3c0-1.3-2-1.3-2,0l-0.4,11.3c0,0.6,0.4,1,1,1c7.9,0,12.8,0,20.8-0.1
		c0.6,0,1-0.4,1-1C368.9,197.3,368.4,196.8,367.9,196.9z"/>
	<path class="st1" d="M421.2,134.4c-0.4-2.4-2.4-2.7-4.4-2.7l-16.2-0.2c-0.6,0-1,0.4-1,1s0.4,1,1,1l13.9,0.2c1.1,0,2.1,0,3.2,0.1
		s1.5,0.4,1.6,1.6c0.1,2.3,0,4.6,0,6.9c0,0.6,0.4,1,1,1s1-0.4,1-1c0-1.4,0-2.7,0-4.1C421.4,136.8,421.4,135.6,421.2,134.4z"/>
	<path class="st1" d="M429.2,167.4c0-0.6-0.4-1-1-1s-1,0.4-1,1c0.2,1,0.3,2.1,0.3,3.1c-0.2,1.5-1.8,1.3-3,1.3l-8,0.2l-4.9,0.1
		c0-1.2,0-2.4,0-3.6c0-2.4-0.1-4.8-0.2-7.2c0-2.3,0-4.6-0.2-6.9c-0.2-1.7-1.4-2.3-3-2.3c-2.5,0-4.9,0.1-7.4,0.1c-0.6,0-1,0.4-1,1
		s0.4,1,1,1l6.4-0.1c0.5-0.1,1.1-0.1,1.7,0c0.5,0.2,0.4,0.8,0.4,1.2c0,1,0.1,2,0.1,3c0.1,4.4,0.2,8.7,0.3,13.1v0.7l-9.1,0.2
		c-0.6,0-1,0.4-1,1s0.4,1,1,1l9.1-0.2c0.1,7.4,0,14.9-0.1,22.3h-6.3c-0.6,0-1,0.4-1,1s0.4,1,1,1h7.2c0.6,0,1-0.4,1-1
		c0.2-7.8,0.2-15.5,0.1-23.3l7.9-0.2l4.5-0.1c1.3,0.1,2.5,0,3.7-0.4C430.4,172.2,429.2,169.5,429.2,167.4z"/>
	<path class="st8" d="M133.5,107c-6.7-1-14.1-2-20.2,1.4c-2.7,1.5-4.8,3.7-7.4,5.3c-2.8,1.8-6.4,1.9-9.3,0.1
		c-5.6-3.3-8.7-10.2-15.7-11.3c-6.4-1-12.4,2.8-15.8,8c-4.5,7-4.5,15.5-4.5,23.5c0,0.6,0.4,1,1,1s1-0.4,1-1c0-7-0.1-14.4,3.2-20.8
		c2.8-5.5,8.8-10.1,15.3-8.7s9.5,8.4,15.2,11.3c2.6,1.4,5.7,1.7,8.5,0.6c2.6-1,4.7-2.9,6.8-4.5c2.8-2.2,6.2-3.6,9.8-3.9
		c3.9-0.2,7.8,0.1,11.7,0.8C134.3,109.1,134.8,107.2,133.5,107z"/>
</g>
</svg>
