<svg xmlns="http://www.w3.org/2000/svg" viewBox="0 0 483 469"><defs><style>.cls-1{fill:#ebebeb;}.cls-2{fill:#263238;}.cls-3{fill:#cc272b;}.cls-4{opacity:0.3;}.cls-5{fill:#ff9173;}.cls-6{fill:#455a64;}.cls-7{fill:#fafafa;}.cls-8{fill:#dd5131;}.cls-9{fill:#a3a6b5;}</style></defs><g id="Layer_4" data-name="Layer 4"><circle class="cls-1" cx="234.36" cy="256.45" r="154.77" transform="translate(-112.7 240.83) rotate(-45)"/><path class="cls-2" d="M234.36,412.22c-85.89,0-155.77-69.87-155.77-155.77s69.88-155.76,155.77-155.76,155.77,69.87,155.77,155.76S320.25,412.22,234.36,412.22Zm0-309.53c-84.79,0-153.77,69-153.77,153.76s69,153.77,153.77,153.77,153.76-69,153.76-153.77S319.14,102.69,234.36,102.69Z"/><path class="cls-3" d="M186.44,218.14l19.75-7,55-4.65,27,14.9s-54.37,72.4-56.24,72.49S186.44,218.14,186.44,218.14Z"/><path class="cls-3" d="M309.73,311.6l17.52-68.71L278,215.76l-47.57,73.33-43.09-71.31-44.4,20.11a13.32,13.32,0,0,0-6.61,6.56L96.17,353.06l54.28,17.52,6.21-25.18,7.15,43.48-4.09,43.35c43.25,21.62,92.84,21.95,136.88.66L289,385.2l4.36-26.13Z"/><rect class="cls-2" x="254.45" y="301.23" width="36.67" height="6.07"/><path class="cls-3" d="M293.61,375.37c14.8,5.27,31.05,4.48,46.59,2.18,3.69-.54,7.55-1.24,10.46-3.58,1-.78,3.31-2.76,3.28-3.23-.11-1.41-2.68-3.31-4.18-4.48a49.85,49.85,0,0,0-40.25-9.41A29.57,29.57,0,0,0,299,360.94c-3.15,2.1-5.12,3.27-6.2,6.9"/><g class="cls-4"><path d="M293.61,375.37c14.8,5.27,31.05,4.48,46.59,2.18,3.69-.54,7.55-1.24,10.46-3.58,1-.78,3.31-2.76,3.28-3.23-.11-1.41-2.68-3.31-4.18-4.48a49.85,49.85,0,0,0-40.25-9.41A29.57,29.57,0,0,0,299,360.94c-3.15,2.1-5.12,3.27-6.2,6.9"/></g><path class="cls-3" d="M353.94,370.74S338.38,277.88,337.4,269.6c-2.4-20.54-10.15-27.11-10.15-27.11l-36.13,110.6,2.5,22.28S305,358.19,353.94,370.74Z"/><path class="cls-2" d="M334,296.17a17.36,17.36,0,0,1-.68,2.3c-.46,1.47-1.22,3.57-2.23,6.13A139.5,139.5,0,0,1,321.62,324a134.53,134.53,0,0,1-12.4,17.61c-1.77,2.12-3.26,3.79-4.33,4.9a15.06,15.06,0,0,1-1.71,1.68,16.31,16.31,0,0,1,1.51-1.87c1-1.16,2.43-2.87,4.14-5A155,155,0,0,0,321,323.59a163.63,163.63,0,0,0,9.63-19.18c1.06-2.53,1.89-4.6,2.44-6A14,14,0,0,1,334,296.17Z"/><path class="cls-2" d="M163.58,386.65s0-.11-.08-.31-.1-.54-.16-.9c-.13-.85-.31-2-.54-3.46-.51-3.06-1.24-7.39-2.13-12.71-1.85-10.72-4.52-25.52-7.5-41.85s-5.66-31.08-7.62-41.84c-.93-5.32-1.69-9.64-2.22-12.7-.23-1.46-.41-2.61-.54-3.47,0-.36-.08-.66-.11-.91a1.82,1.82,0,0,1,0-.31s0,.11.09.31.1.54.17.89c.16.85.38,2,.67,3.44.59,3.05,1.42,7.36,2.44,12.66,2,10.69,4.83,25.46,7.82,41.8s5.58,31.15,7.3,41.9c.87,5.38,1.5,9.74,1.91,12.75.18,1.47.31,2.63.41,3.49q.06.54.09.9A1.13,1.13,0,0,1,163.58,386.65Z"/><path class="cls-2" d="M312.41,274.7a6.07,6.07,0,0,1-.19,1.05c-.16.74-.38,1.73-.66,3-.61,2.64-1.47,6.33-2.52,10.87-2.15,9.17-5.12,21.84-8.27,35.86s-5.89,26.75-7.7,36c-.9,4.63-1.63,8.37-2.06,11-.23,1.25-.41,2.24-.55,3a6.52,6.52,0,0,1-.23,1,5.52,5.52,0,0,1,.09-1.05c.11-.76.24-1.76.42-3,.35-2.61,1-6.37,1.84-11,1.69-9.27,4.34-22,7.5-36s6.21-26.68,8.47-35.83c1.15-4.51,2.08-8.19,2.75-10.82.32-1.22.59-2.19.78-2.93A5.51,5.51,0,0,1,312.41,274.7Z"/><path class="cls-5" d="M105.12,355.65l-6.79,25.77a24.52,24.52,0,0,0,5.91,23.5c.36.36.74.72,1.12,1.07h0a25.5,25.5,0,0,0,26.4,4.68l70-27.8-10.34-31.56-53,15.1Z"/><path class="cls-6" d="M162.58,312.7l12.69,67.54a6,6,0,0,0,6.18,4.93l97-3.7a6,6,0,0,0,5.81-6.26L282,311.38a6.06,6.06,0,0,0-6.05-5.85H168.53A6.06,6.06,0,0,0,162.58,312.7Z"/><path class="cls-5" d="M268.51,340.21h0A9,9,0,0,0,260.1,346c-1.4,3.66-3.45,7.92-5.73,9.17-4.2,2.29-11.47,4.12-15.29,2.25S220,341.74,217.3,343.27s-5,5-2.3,8,16.82,12.23,14.14,15.29-32.48-10.4-37.07-9.21-7.26,4-4.58,5.84,22.93,9.49,24.07,12.16c0,0-30.57-8-31.72-6.11s-3.06,5,0,6.11,29.43,8,31.72,9.18,10.2,3.43,11.79,3.43c.84,0,6.82,2,12.32,3.91a27,27,0,0,0,19-.51l3.1-1.26a12.12,12.12,0,0,0,7.53-12l-.62-10.42,3.33-8.6Z"/><path class="cls-5" d="M244,393.38s55.79,50.5,74.58,50.64c19.8.15,30.94-20.39,28.83-33.16-1.12-6.81-4.06-42.42-4.06-42.42-13.26-3.63-33.07-5.25-47.19,4.15l5.14,20.79-37.24-18Z"/><path class="cls-2" d="M353.94,370.74a1.91,1.91,0,0,1-.64-.1l-1.8-.43c-1.56-.38-3.82-.94-6.62-1.57a91.48,91.48,0,0,0-22.16-2.56,75.53,75.53,0,0,0-12.22,1.37,43.5,43.5,0,0,0-9.59,2.83,23.56,23.56,0,0,0-5.73,3.52c-1.21,1-1.79,1.72-1.84,1.67a2.3,2.3,0,0,1,.38-.52,14.66,14.66,0,0,1,1.27-1.36,22.29,22.29,0,0,1,5.71-3.77,42.11,42.11,0,0,1,9.68-3,72.9,72.9,0,0,1,12.32-1.45,84.85,84.85,0,0,1,22.3,2.79c2.79.69,5,1.32,6.57,1.79l1.77.55A2.59,2.59,0,0,1,353.94,370.74Z"/><path class="cls-7" d="M151.49,148.82l-.13-.08a64,64,0,1,0-15.17,14.56l22,8.82Z"/><path class="cls-2" d="M100.05,46.37a7,7,0,0,0-1.1,0l-3.25.09c-.71,0-1.51,0-2.39.11l-2.86.4-3.34.48-3.73.93A60.51,60.51,0,0,0,65.3,56.24,63.81,63.81,0,0,0,36,104.2a66.77,66.77,0,0,0-.17,8.74c.1,1.48.07,3,.29,4.47s.45,3,.68,4.51a64.08,64.08,0,0,0,6.07,17.79,68.79,68.79,0,0,0,11.62,16,67.23,67.23,0,0,0,16.75,12A61,61,0,0,0,91.63,174a41.16,41.16,0,0,0,5.45.46,48,48,0,0,0,5.5.1,65.52,65.52,0,0,0,11-1.39,64.37,64.37,0,0,0,21.94-9.23l-.66.07,22.34,9,1.33.53-.38-1.38q-3.37-12.3-6.57-23.89l-.11.59a64.08,64.08,0,0,0,11.92-27.3,57.29,57.29,0,0,0,.87-14,43.83,43.83,0,0,0-.63-6.72q-.26-1.65-.51-3.27c-.2-1.07-.53-2.11-.78-3.16A63.92,63.92,0,0,0,137.42,58a61.12,61.12,0,0,0-14.83-7.83L119.24,49l-3.17-.8-2.9-.72c-.93-.18-1.83-.28-2.67-.41-1.69-.21-3.18-.5-4.48-.57l-3.28-.11-2,0a2.71,2.71,0,0,0-.68,0,3,3,0,0,0,.68.09l2,.16,3.26.22c1.29.1,2.76.43,4.43.68a63.55,63.55,0,0,1,50.82,47.14c.25,1,.56,2,.75,3.11s.32,2.13.49,3.21a44.85,44.85,0,0,1,.59,6.6,57,57,0,0,1-.91,13.71A62.89,62.89,0,0,1,150.4,148l-.2.27.09.32q3.15,11.58,6.52,23.91l.94-.85-22.34-9-.35-.14-.31.21a63.19,63.19,0,0,1-32.23,10.38,48.26,48.26,0,0,1-5.38-.1,39.36,39.36,0,0,1-5.32-.45,59.44,59.44,0,0,1-20-6.1,66.24,66.24,0,0,1-16.4-11.74,67.31,67.31,0,0,1-11.41-15.63,63.07,63.07,0,0,1-6-17.41c-.23-1.48-.46-3-.68-4.41s-.19-2.93-.3-4.38A62,62,0,0,1,47.46,75a64.45,64.45,0,0,1,18.28-18.1,61,61,0,0,1,17.79-8l3.68-1,3.31-.54,2.83-.47c.87-.09,1.67-.12,2.37-.17L99,46.5A5.55,5.55,0,0,0,100.05,46.37Z"/><path class="cls-7" d="M331.51,205.61l.13-.08a64,64,0,1,1,15.17,14.56l-22,8.82Z"/><path class="cls-2" d="M383,103.16a7,7,0,0,1,1.1,0l3.25.09c.71,0,1.51,0,2.39.11l2.86.4,3.34.48,3.73.93A60.26,60.26,0,0,1,417.7,113,63.81,63.81,0,0,1,447,161a66.77,66.77,0,0,1,.17,8.74c-.1,1.48-.07,3-.29,4.47s-.45,3-.68,4.51a64.08,64.08,0,0,1-6.07,17.79,68.79,68.79,0,0,1-11.62,16,67.23,67.23,0,0,1-16.75,12,61,61,0,0,1-20.4,6.26,41.16,41.16,0,0,1-5.45.46,48,48,0,0,1-5.5.1,65.52,65.52,0,0,1-11-1.39,64.37,64.37,0,0,1-21.94-9.23l.66.06-22.34,9-1.33.54.38-1.38q3.38-12.3,6.57-23.89l.11.59a64.08,64.08,0,0,1-11.92-27.3,57.29,57.29,0,0,1-.87-14,43.83,43.83,0,0,1,.63-6.72q.25-1.65.51-3.27c.2-1.07.53-2.12.78-3.16a63.92,63.92,0,0,1,24.94-36.35A61.12,61.12,0,0,1,360.41,107l3.35-1.2,3.17-.8,2.9-.72c.93-.18,1.83-.28,2.67-.41,1.69-.21,3.18-.5,4.48-.57l3.28-.11,2,0a2.71,2.71,0,0,1,.68,0,3,3,0,0,1-.68.09l-2,.16-3.26.22c-1.29.1-2.76.43-4.43.68a63.55,63.55,0,0,0-50.82,47.14c-.25,1-.56,2.05-.75,3.11s-.32,2.13-.49,3.21a44.85,44.85,0,0,0-.59,6.6,57,57,0,0,0,.91,13.71,62.89,62.89,0,0,0,11.76,26.71l.2.27-.09.32q-3.15,11.58-6.52,23.91l-.94-.85,22.34-9,.35-.14.31.2a63.1,63.1,0,0,0,32.23,10.39,50.79,50.79,0,0,0,5.38-.1,39.36,39.36,0,0,0,5.32-.45,59.67,59.67,0,0,0,20-6.1,66.24,66.24,0,0,0,16.4-11.74A67.31,67.31,0,0,0,439,195.88a63.07,63.07,0,0,0,6-17.41c.23-1.48.46-2.95.68-4.41s.19-2.93.3-4.38a63,63,0,0,0-28.68-56,61,61,0,0,0-17.79-8l-3.68-1-3.31-.54-2.83-.47c-.87-.1-1.67-.12-2.37-.17l-3.23-.24A5.55,5.55,0,0,1,383,103.16Z"/><path class="cls-5" d="M258.31,91.44a9.49,9.49,0,0,1,8.47,9.63h0L261.12,217c-1.1,6.64-17.68,18.91-33.87,18.54,0,0-21.63-9-21.83-23.36-.34-24-.24-15.6-.25-15.46s-20.65-3.48-24.88-30.45c-2.09-13.41-1.37-35.39-.2-53.36,1-16.17,11.81-36,27.93-34.25Z"/><path class="cls-2" d="M189.52,132.24a3.46,3.46,0,0,0,3.33,3.5,3.3,3.3,0,0,0,3.57-3.11,3.46,3.46,0,0,0-3.32-3.5A3.32,3.32,0,0,0,189.52,132.24Z"/><path class="cls-2" d="M184.83,125.27c.43.45,3-1.49,6.77-1.47s6.45,1.89,6.85,1.43c.2-.2-.23-1-1.42-1.88a9.41,9.41,0,0,0-5.48-1.7,9,9,0,0,0-5.39,1.72C185,124.25,184.62,125.06,184.83,125.27Z"/><path class="cls-2" d="M225.09,133.69a3.47,3.47,0,0,0,3.33,3.5,3.32,3.32,0,0,0,3.57-3.11,3.46,3.46,0,0,0-3.32-3.5A3.31,3.31,0,0,0,225.09,133.69Z"/><path class="cls-2" d="M221.74,125.27c.42.45,3-1.48,6.77-1.47s6.44,1.89,6.85,1.43c.2-.2-.23-1-1.43-1.88a9.41,9.41,0,0,0-5.48-1.7,9.07,9.07,0,0,0-5.39,1.72C221.92,124.25,221.53,125.06,221.74,125.27Z"/><path class="cls-2" d="M207.84,152.64c0-.21-2.29-.61-6-1.1-1-.1-1.85-.29-2-.94a4.85,4.85,0,0,1,.64-2.81l2.83-7.23c3.92-10.29,6.77-18.76,6.35-18.91s-3.94,8.06-7.86,18.35c-.94,2.54-1.85,5-2.71,7.27-.36,1.08-1,2.31-.5,3.73a2.38,2.38,0,0,0,1.56,1.39,6.35,6.35,0,0,0,1.61.23C205.49,152.83,207.83,152.86,207.84,152.64Z"/><path class="cls-8" d="M205.17,196.67a68.59,68.59,0,0,0,36.13-9.55s-9,19-36,16.43Z"/><path class="cls-2" d="M230.83,161.36c-.49-.35-2.62,3.08-7.07,3.7s-7.87-2-8.19-1.55c-.19.18.4,1.17,1.92,2.17a10,10,0,0,0,6.72,1.49,8.76,8.76,0,0,0,5.71-3.24C230.94,162.57,231.08,161.49,230.83,161.36Z"/><path class="cls-2" d="M219.62,116.72c.46,1,4.11.13,8.51.23s8,.93,8.51,0c.21-.46-.49-1.35-2-2.18a14.81,14.81,0,0,0-13-.15C220.14,115.39,219.41,116.26,219.62,116.72Z"/><path class="cls-2" d="M185.16,119.13c.82.84,4,0,7.83-.09s7.07.56,7.82-.33c.32-.43-.19-1.27-1.61-2.07a13.7,13.7,0,0,0-12.6.33C185.24,117.85,184.8,118.72,185.16,119.13Z"/><path class="cls-2" d="M277.43,182.41s-.17,0-.47-.06a10.59,10.59,0,0,1-1.3-.36,12.29,12.29,0,0,1-4.32-2.45,7.81,7.81,0,0,1-2.63-6.77A5.13,5.13,0,0,1,271,169a2.58,2.58,0,0,1,2.49-.12,2.08,2.08,0,0,1,1.11,2.33,1.81,1.81,0,0,1-.89,1.06,2.9,2.9,0,0,1-1.26.32,5.52,5.52,0,0,1-2.35-.47,10.74,10.74,0,0,1-3.68-2.43,10.42,10.42,0,0,1-3.09-6.64,10.78,10.78,0,0,1,.77-4.9,9,9,0,0,1,.62-1.2c.17-.26.27-.39.29-.37s-.29.58-.68,1.66a11.3,11.3,0,0,0-.55,4.77,10.14,10.14,0,0,0,3.06,6.26,10.39,10.39,0,0,0,3.49,2.27,4.91,4.91,0,0,0,2.09.41A1.57,1.57,0,0,0,274,171a1.46,1.46,0,0,0-.81-1.58,2,2,0,0,0-1.87.11,4.61,4.61,0,0,0-2.06,3.31,7,7,0,0,0,.5,3.67,7.92,7.92,0,0,0,1.86,2.68,13.13,13.13,0,0,0,4.1,2.54C276.82,182.19,277.44,182.36,277.43,182.41Z"/><path class="cls-2" d="M212,62.79a8.17,8.17,0,0,1-2.95-10.2c-1.13-1.6.2-4,2-4.64s3.87-.13,5.75.39c-.5-.9.85-1.67,1.87-1.84l7.14-1.14A11,11,0,0,1,218.44,39a17.16,17.16,0,0,1-1-10,3.61,3.61,0,0,1,1.26-2.55,27.24,27.24,0,0,1,5,8.35,7.09,7.09,0,0,1,5.1,2.57,1.94,1.94,0,0,1,2.92-.78c1.51-4.22,4.37-8.67,8.81-9.18-1.39-2,1.14-4.31,3.29-5.38a13.86,13.86,0,0,1,5-1.73,4.73,4.73,0,0,1,4.56,2.07c.85,1.54.06,3.9-1.68,4.19a4.89,4.89,0,0,1,1.73,5.78,4.86,4.86,0,0,1,5.86-1.19A18.65,18.65,0,0,1,269,29.79a4.6,4.6,0,0,1,2.4.84c.5.42.84,1,1.36,1.41a5.1,5.1,0,0,0,2.65.71,10.58,10.58,0,0,1,5.92,2.16,5.14,5.14,0,0,1,1.6,5.75c4.92,1.59,9.8-4.06,14.87-3.06,3,.59,5,3.31,6.33,6a17,17,0,0,1-7.94,1.17,3.38,3.38,0,0,1-3.27,2.59,2,2,0,0,1-1.13,3.1c3-1,6.36-.58,9.47.15,4.74,1.12,9.94,3.61,11,8.36a15.29,15.29,0,0,1,0,5.14c-.3,2.55-1.61,5.92-4.14,5.44-1.56-.29-2.37-2-3.2-3.31a13.49,13.49,0,0,0-8.26-6c-1.21,1.18,1,2.68,2,4.05s.57,3.21.81,4.86c.37,2.5,2.22,4.5,3.32,6.78,2.37,4.94,1.13,10.76-.16,16.08-.35,1.45-2,3.24-2.89,2,1.83.26,3,2.25,3,4.1a11.68,11.68,0,0,1-1.71,5.21c-.36.7-.81,1.48-1.58,1.66-1.11.26-2-.86-2.62-1.84l-4.84-8a12.13,12.13,0,0,1-.13,5.49c-.78,3.48-2.85,7-6.27,8.06-2.35.7-4.87.08-7.24-.54"/><path class="cls-2" d="M265.11,146.62c-1.05-.43-5.26,1.29-5.95.39-3.52-4.57-5.43-17.63-6.3-23.33s2.68-12.06,2.14-17.8c-.43-4.6-1.28-9.45-4.33-12.92a17,17,0,0,0-7-4.46,27,27,0,0,0-24.47,3.26c-2.89,2-5.62,4.78-9.14,5.11s-6.68-1.82-9.7-3.63-6.74-3.38-9.93-1.92a9.91,9.91,0,0,0-3.17,2.6c-2.19,2.52-6.72,13.55-6.8,17.93,0,0-2.22-10.17,1.62-19.57,4.64-11.36,17.12-24.21,37-27.44,31.87-5.17,46.8,12.57,52.46,25.25,2.43,5.44,4.45,19.7,2.69,30.7A79.13,79.13,0,0,1,265.11,146.62Z"/><path class="cls-3" d="M273.66,94.49c-.48.15-1.77-3.43-5-8.55a58.6,58.6,0,0,0-6.3-8.41,37.65,37.65,0,0,0-9.75-8,38.78,38.78,0,0,0-12-3.91,43.62,43.62,0,0,0-10.41-.36c-6,.53-9.55,1.91-9.74,1.42-.08-.19.71-.77,2.31-1.51A30,30,0,0,1,230,63.05a38.1,38.1,0,0,1,11.11-.32,37.61,37.61,0,0,1,13.1,4,36.56,36.56,0,0,1,10.46,8.85,47.24,47.24,0,0,1,6.05,9.25C273.49,90.48,274,94.4,273.66,94.49Z"/><path class="cls-6" d="M242.54,66.81a13.7,13.7,0,0,1-1.93.22,42.81,42.81,0,0,0-5.18.87,38.46,38.46,0,0,0-26.18,20.81,42.41,42.41,0,0,0-2,4.85,14.18,14.18,0,0,1-.65,1.83,1.44,1.44,0,0,1,.07-.5c.08-.32.16-.8.34-1.4a33.49,33.49,0,0,1,1.84-5,37.27,37.27,0,0,1,26.49-21.07,34.48,34.48,0,0,1,5.26-.67c.63,0,1.12,0,1.44,0S242.54,66.78,242.54,66.81Z"/><path class="cls-6" d="M251,70.65a38.39,38.39,0,0,1-3.73,2,85.56,85.56,0,0,0-16.7,11.72c-2,1.74-3.11,2.88-3.18,2.81a4,4,0,0,1,.71-.9c.48-.55,1.22-1.32,2.16-2.24a65.71,65.71,0,0,1,16.81-11.8c1.18-.57,2.16-1,2.84-1.27A4.16,4.16,0,0,1,251,70.65Z"/><path class="cls-6" d="M268.26,85A3.64,3.64,0,0,1,268.2,86c-.08.69-.25,1.67-.5,2.87A48.47,48.47,0,0,1,260,106.4c-.71,1-1.32,1.79-1.77,2.31s-.71.8-.74.77.82-1.28,2.13-3.33a61.25,61.25,0,0,0,4.49-8.38,62.44,62.44,0,0,0,3.11-9C267.88,86.43,268.16,84.94,268.26,85Z"/><path class="cls-6" d="M259.37,123.5c-.09-.08,1.31-1.57,3.17-4.26a45.71,45.71,0,0,0,2.94-4.91,48.66,48.66,0,0,0,2.71-6.46,47.94,47.94,0,0,0,1.67-6.8,45.44,45.44,0,0,0,.56-5.7c.11-3.27-.12-5.29,0-5.3a6,6,0,0,1,.24,1.41,30.9,30.9,0,0,1,.22,3.9,41.13,41.13,0,0,1-.43,5.78,45.6,45.6,0,0,1-1.65,6.92,44.35,44.35,0,0,1-2.8,6.53,40.13,40.13,0,0,1-3.09,4.9,30.93,30.93,0,0,1-2.5,3A5.7,5.7,0,0,1,259.37,123.5Z"/><path class="cls-2" d="M157.65,95.21s.5.53,1.45,1.42a14.18,14.18,0,0,0,4.58,2.93,9,9,0,0,0,7.72-.46,6.57,6.57,0,0,0,2.85-3.54,5.31,5.31,0,0,0-.48-4.71,2.32,2.32,0,0,0-2-1.07,1.59,1.59,0,0,0-1.51,1.32,5.83,5.83,0,0,0,1,4.35,7.14,7.14,0,0,0,3.25,2.61,6.16,6.16,0,0,0,3.62.27,7.34,7.34,0,0,0,4.38-3,13.29,13.29,0,0,0,.94-1.78,1.93,1.93,0,0,1-.1.52,5.77,5.77,0,0,1-.63,1.4,7.46,7.46,0,0,1-4.49,3.26,6.53,6.53,0,0,1-3.91-.21,7.68,7.68,0,0,1-3.55-2.77,6.42,6.42,0,0,1-1.17-4.85,2.41,2.41,0,0,1,.71-1.25,2.13,2.13,0,0,1,1.38-.54,2.93,2.93,0,0,1,2.51,1.33,5.91,5.91,0,0,1,.56,5.29,7.11,7.11,0,0,1-3.15,3.84,9.45,9.45,0,0,1-8.18.38,13.5,13.5,0,0,1-4.59-3.19,12.88,12.88,0,0,1-1-1.14C157.73,95.38,157.63,95.22,157.65,95.21Z"/><path class="cls-2" d="M321.24,87.27a3.74,3.74,0,0,1-.72.15c-.47.08-1.17.19-2.08.3a21.44,21.44,0,0,1-7.74-.31,11.67,11.67,0,0,1-4.79-2.48,8,8,0,0,1-2.77-5.52,6.78,6.78,0,0,1,.61-3.37,5.85,5.85,0,0,1,2.47-2.6,7.54,7.54,0,0,1,7.27,0,3.76,3.76,0,0,1,2,3.24,3.7,3.7,0,0,1-2.18,3,7.06,7.06,0,0,1-3.53.55,17.84,17.84,0,0,1-3.32-.55A17.14,17.14,0,0,1,294,66.25a15.81,15.81,0,0,1-.24-2.09,2.79,2.79,0,0,1,0-.74c.06,0,.06,1,.45,2.78a17.73,17.73,0,0,0,3.2,6.87,17.17,17.17,0,0,0,9.24,6.1,18.54,18.54,0,0,0,3.21.51,6.49,6.49,0,0,0,3.21-.5,2.76,2.76,0,0,0,.09-5.16,7,7,0,0,0-6.64,0,5.59,5.59,0,0,0-2.79,5.39,7.46,7.46,0,0,0,2.53,5.15A11.37,11.37,0,0,0,310.82,87a22.45,22.45,0,0,0,7.6.5l2.09-.18A2.9,2.9,0,0,1,321.24,87.27Z"/><path class="cls-2" d="M196.62,29a11.29,11.29,0,0,0-.69,2.46,8.48,8.48,0,0,0,1.86,6.44A9.17,9.17,0,0,0,207,40.67c1.8-.46,3.74-1.64,4.32-3.58a3.6,3.6,0,0,0-.45-2.87,2.38,2.38,0,0,0-2.57-1.07,3.52,3.52,0,0,0-2.22,2,4,4,0,0,0-.09,3,10.25,10.25,0,0,0,3.65,4.64,18.36,18.36,0,0,0,9.48,3.71,18.7,18.7,0,0,0,6.91-.63c1.59-.46,2.41-.9,2.44-.83a2.74,2.74,0,0,1-.58.33,13.62,13.62,0,0,1-1.78.74,17.9,17.9,0,0,1-7,.84,18.62,18.62,0,0,1-9.8-3.69,10.8,10.8,0,0,1-3.89-4.92,4.63,4.63,0,0,1,.11-3.41,4.15,4.15,0,0,1,2.65-2.35,3,3,0,0,1,3.25,1.35,4.2,4.2,0,0,1,.53,3.39,5.2,5.2,0,0,1-2,2.67,8,8,0,0,1-2.83,1.31,9.6,9.6,0,0,1-9.74-3,8.6,8.6,0,0,1-1.76-6.77,7.58,7.58,0,0,1,.59-1.85A2.39,2.39,0,0,1,196.62,29Z"/><path class="cls-5" d="M258.5,142.65c.3-6,6.8-10,12-7,2.84,1.64,5,4.94,4.75,11.27-.69,16.9-17.51,12.71-17.52,12.23C257.7,158.89,258.16,149.63,258.5,142.65Z"/><path class="cls-8" d="M263.13,153c.07-.05.28.22.77.47a2.93,2.93,0,0,0,2.2.13c1.81-.58,3.43-3.35,3.64-6.39a9.91,9.91,0,0,0-.65-4.25,3.42,3.42,0,0,0-2.12-2.35,1.5,1.5,0,0,0-1.77.74c-.25.46-.16.8-.25.83s-.35-.3-.18-1a1.79,1.79,0,0,1,.7-1,2.23,2.23,0,0,1,1.65-.37,4.16,4.16,0,0,1,3,2.75,10,10,0,0,1,.82,4.75c-.25,3.4-2.12,6.51-4.59,7.12a3.15,3.15,0,0,1-2.67-.56C263.14,153.41,263.07,153,263.13,153Z"/><polygon class="cls-2" points="205.28 200.82 224.57 229.17 208.89 245.52 193.99 212.62 205.28 200.82"/><polygon class="cls-2" points="261.67 199.07 228.49 229.47 244.46 246.8 272.12 212.53 261.67 199.07"/><path class="cls-2" d="M136.72,107.37q-28.84-.23-57.68,1-8.19.35-16.39.82c-1.28.07-1.29,2.07,0,2q28.8-1.65,57.66-1.83,8.2,0,16.41,0A1,1,0,0,0,136.72,107.37Z"/><path class="cls-3" d="M136.78,107.19a36.41,36.41,0,0,1-13.66-3.47c-1.66-.8-3.47-2.2-5.42-1.87s-2.92,1.93-3.84,3.38c-1.31,2-2.6,4.1-3.9,6.15a40,40,0,0,1-3.61,5.22,8.48,8.48,0,0,1-4.8,3,8.94,8.94,0,0,1-5.86-1.25C88,113.92,88,103.27,83.44,96.49c-2-2.94-5.34-6.3-9.22-5.08-3.23,1-4.5,4.7-5.22,7.67a252.73,252.73,0,0,0-5.69,32.78c-.15,1.28,1.85,1.27,2,0a258.85,258.85,0,0,1,4.74-28.47c.67-3,1.15-8.41,4.39-9.92,4-1.88,7.51,4,8.88,6.9,3.29,6.85,4.31,15.93,11.69,19.87a10.05,10.05,0,0,0,10,.1c3.25-2,5.16-5.64,7.14-8.77,1.35-2.13,2.58-4.44,4.12-6.44.78-1,1.68-1.59,3-1.12s2.28,1.19,3.44,1.72a39.12,39.12,0,0,0,14.06,3.46C138.07,109.26,138.07,107.26,136.78,107.19Z"/><path class="cls-3" d="M396.94,152.67l-.16-4.48a1,1,0,0,0-1.47-.86.89.89,0,0,0-.91-.64l-15.5.15c-2,0-4.74-.41-6.59.65-1.52.86-1.95,2.59-2,4.22s-.08,3.63.89,5.07c1.15,1.7,3.12,1.67,5,1.71q7.88.13,15.75.08c2,0,4.69.3,5.11-2.27A19.16,19.16,0,0,0,396.94,152.67Zm-1.9,3c-.16.79-.42.87-1.19.9s-1.31,0-2,0l-3.94,0c-2.62,0-5.25,0-7.87,0l-3.94-.06c-1,0-2.48.18-3.21-.7-1-1.18-.89-3.93-.47-5.33s1.42-1.53,2.66-1.58,2.53,0,3.79,0l15.5-.15a1,1,0,0,0,.4-.09l.12,3.36A17.6,17.6,0,0,1,395,155.65Z"/><path class="cls-2" d="M396.94,132.47l-.16-4.48a1,1,0,0,0-1.47-.86.89.89,0,0,0-.91-.64l-15.5.15c-2,0-4.74-.41-6.59.65-1.52.86-1.95,2.59-2,4.22s-.08,3.63.89,5.07c1.15,1.7,3.12,1.67,5,1.71q7.88.14,15.75.08c2,0,4.69.3,5.11-2.27A19.16,19.16,0,0,0,396.94,132.47Zm-1.9,3c-.16.78-.42.87-1.19.9s-1.31,0-2,0l-3.94,0c-2.62,0-5.25,0-7.87,0l-3.94-.05c-1,0-2.48.18-3.21-.7-1-1.18-.89-3.93-.47-5.33s1.42-1.53,2.66-1.58,2.53,0,3.79,0l15.5-.15a1,1,0,0,0,.4-.09l.12,3.36A17.58,17.58,0,0,1,395,135.45Z"/><path class="cls-3" d="M396.94,174.61l-.16-4.48a1,1,0,0,0-1.47-.87.92.92,0,0,0-.91-.64l-15.5.15c-2,0-4.74-.4-6.59.65-1.52.87-1.95,2.6-2,4.23s-.08,3.63.89,5.07c1.15,1.7,3.12,1.67,5,1.7q7.88.15,15.75.08c2,0,4.69.3,5.11-2.27A19,19,0,0,0,396.94,174.61Zm-1.9,3c-.16.79-.42.87-1.19.91s-1.31,0-2,0c-1.31,0-2.62,0-3.94,0-2.62,0-5.25,0-7.87,0-1.32,0-2.63,0-3.94-.06-1,0-2.48.19-3.21-.7-1-1.18-.89-3.93-.47-5.32s1.42-1.54,2.66-1.59,2.53,0,3.79,0l15.5-.15a1,1,0,0,0,.4-.08l.12,3.36A17.5,17.5,0,0,1,395,177.58Z"/><path class="cls-3" d="M396.94,196.54l-.16-4.48a1,1,0,0,0-1.47-.86.89.89,0,0,0-.91-.64l-15.5.15c-2,0-4.74-.41-6.59.65-1.52.86-1.95,2.6-2,4.22s-.08,3.63.89,5.07c1.15,1.7,3.12,1.67,5,1.71q7.88.13,15.75.08c2,0,4.69.3,5.11-2.27A19.16,19.16,0,0,0,396.94,196.54Zm-1.9,3c-.16.79-.42.87-1.19.9s-1.31,0-2,0l-3.94,0c-2.62,0-5.25,0-7.87,0l-3.94-.06c-1,0-2.48.18-3.21-.7-1-1.18-.89-3.93-.47-5.33s1.42-1.53,2.66-1.58,2.53,0,3.79,0l15.5-.15a1,1,0,0,0,.4-.09l.12,3.37A17.48,17.48,0,0,1,395,199.52Z"/><path class="cls-2" d="M365.11,131.86a117.4,117.4,0,0,0-12.86.25,67.45,67.45,0,0,0-11.5,1.51c-3.13.8-5.59,2.73-6.1,6.07a19.18,19.18,0,0,0,.14,5.13c.24,2.1.49,4.21.73,6.32l1.69,14.58a1,1,0,0,0,.73.89,9.87,9.87,0,0,0-4.42,8.18,7.8,7.8,0,0,0,5.4,7.35c7.44,2.18,11.71-7.72,8.55-13.42a7.57,7.57,0,0,0-8.34-3.7q-.84-7.19-1.67-14.37c-.27-2.37-.58-4.74-.82-7.11-.2-2-.36-4.48,1.11-6.14,1.27-1.43,3.32-1.88,5.13-2.19,2.38-.42,4.79-.69,7.19-.91a118,118,0,0,1,15-.44C366.4,133.9,366.4,131.9,365.11,131.86ZM339.64,167a5.49,5.49,0,0,1,5.58,2c1.67,2.07,1.68,5.13.72,7.51s-2.92,4.26-5.58,4a5.61,5.61,0,0,1-4.79-5,7.79,7.79,0,0,1,3.66-7.3A1,1,0,0,0,339.64,167Z"/><path class="cls-2" d="M428.39,149.2c-.93-.89-2.35.52-1.42,1.42a5.66,5.66,0,0,1,1.54,5.41,5.27,5.27,0,0,1-4,3.79,5.13,5.13,0,0,1-5.21-1.76,5.38,5.38,0,0,1-.84-5.48,5.57,5.57,0,0,1,5.61-3.16,1,1,0,0,0,1-1,1,1,0,0,0-1-1,7.55,7.55,0,0,0-7,3.49,7.24,7.24,0,0,0,.15,7.69,7.09,7.09,0,0,0,6.73,3.32,7.42,7.42,0,0,0,6.16-4.42A7.68,7.68,0,0,0,428.39,149.2Z"/><path class="cls-2" d="M367.73,151.13a98,98,0,0,0-16.6.67,37.15,37.15,0,0,0-4.47.57,2.19,2.19,0,0,0-1.8,1.83,21.52,21.52,0,0,0,.14,4.39l.24,4.95c.06,1.28,2.07,1.29,2,0-.13-2.67-.27-5.34-.39-8,0-.69-.07-1,.64-1.27a13,13,0,0,1,2.42-.31c1.39-.16,2.77-.3,4.16-.43a93,93,0,0,1,13.66-.38C369,153.17,369,151.17,367.73,151.13Z"/><path class="cls-2" d="M367.48,175l-15.15.06a1,1,0,0,0,0,2l15.15-.06A1,1,0,0,0,367.48,175Z"/><path class="cls-2" d="M367.86,196.85l-19.74.06.39-10.26c.05-1.29-1.95-1.29-2,0l-.43,11.27a1,1,0,0,0,1,1c7.94,0,12.84,0,20.78-.07A1,1,0,0,0,367.86,196.85Z"/><path class="cls-2" d="M421.23,134.38c-.36-2.36-2.36-2.69-4.39-2.72l-16.25-.23a1,1,0,0,0,0,2l13.91.2c1.06,0,2.14,0,3.21.05s1.55.4,1.6,1.57c.09,2.29,0,4.59,0,6.88a1,1,0,0,0,2,0c0-1.35,0-2.71,0-4.06A23.91,23.91,0,0,0,421.23,134.38Z"/><path class="cls-2" d="M429.19,167.39a1,1,0,0,0-2,0,30.46,30.46,0,0,1,.34,3.11c-.16,1.54-1.82,1.27-3,1.3l-8,.19-4.91.12c0-1.21,0-2.41-.05-3.61q-.06-3.58-.16-7.17a66,66,0,0,0-.23-6.9c-.23-1.71-1.4-2.28-3-2.3-2.47,0-4.94.06-7.41.09a1,1,0,0,0,0,2l6.42-.08a4.63,4.63,0,0,1,1.66,0c.47.25.36.79.38,1.24,0,1,.07,2,.1,3q.19,6.55.29,13.1v.69l-9.06.22a1,1,0,0,0,0,2l9.07-.22q.11,11.15-.09,22.27l-6.26,0a1,1,0,0,0,0,2l7.24,0a1,1,0,0,0,1-1q.24-11.65.12-23.32l7.89-.18,4.49-.11a9.67,9.67,0,0,0,3.71-.41C430.35,172.23,429.19,169.53,429.19,167.39Z"/><path class="cls-9" d="M133.54,107c-6.68-1-14.07-2-20.25,1.44-2.66,1.49-4.83,3.72-7.44,5.3a8.51,8.51,0,0,1-9.27.06c-5.62-3.33-8.73-10.18-15.69-11.26-6.42-1-12.43,2.75-15.8,8-4.46,7-4.52,15.53-4.49,23.53a1,1,0,0,0,2,0c0-7-.08-14.42,3.23-20.81,2.85-5.51,8.76-10.08,15.28-8.68s9.54,8.41,15.17,11.31a10.06,10.06,0,0,0,8.47.6c2.57-1,4.65-2.87,6.83-4.52a18.37,18.37,0,0,1,9.77-3.87,49.6,49.6,0,0,1,11.66.8C134.27,109.13,134.81,107.2,133.54,107Z"/></g></svg>