<svg width="26" height="26" viewBox="0 0 26 26" fill="none" xmlns="http://www.w3.org/2000/svg">
<path d="M13 2.34244C16.4711 2.34244 16.8822 2.35564 18.253 2.4181C19.5205 2.47599 20.2089 2.68775 20.6671 2.86579C21.2738 3.10162 21.7069 3.38335 22.1617 3.83825C22.6167 4.29315 22.8984 4.72621 23.1342 5.33295C23.3123 5.79109 23.524 6.47948 23.5819 7.74688C23.6444 9.11777 23.6576 9.5289 23.6576 13C23.6576 16.4712 23.6444 16.8823 23.5819 18.2531C23.524 19.5206 23.3123 20.2089 23.1342 20.6671C22.8984 21.2738 22.6166 21.707 22.1617 22.1619C21.7069 22.6168 21.2738 22.8985 20.6671 23.1342C20.2089 23.3123 19.5205 23.5241 18.253 23.5819C16.8824 23.6445 16.4713 23.6577 13 23.6577C9.52859 23.6577 9.11747 23.6445 7.74688 23.5819C6.47938 23.524 5.79109 23.3123 5.33295 23.1342C4.72621 22.8985 4.29305 22.6168 3.83815 22.1619C3.38325 21.7069 3.10152 21.2738 2.86579 20.6671C2.68775 20.209 2.47589 19.5206 2.4181 18.2531C2.35554 16.8823 2.34234 16.4712 2.34234 13C2.34234 9.5289 2.35554 9.11777 2.4181 7.74698C2.47599 6.47948 2.68775 5.79109 2.86579 5.33295C3.10152 4.72621 3.38325 4.29315 3.83815 3.83825C4.29315 3.38325 4.72621 3.10162 5.33295 2.86579C5.79099 2.68775 6.47938 2.47599 7.74688 2.4181C9.11767 2.35564 9.5288 2.34244 13 2.34244ZM13 0C9.46938 0 9.02667 0.0149297 7.64014 0.0782031C6.25635 0.141375 5.31131 0.361156 4.48449 0.6825C3.62954 1.01471 2.90459 1.45925 2.18187 2.18197C1.45915 2.90469 1.01471 3.62964 0.6825 4.48449C0.361055 5.31141 0.141375 6.25645 0.0782031 7.64014C0.0149297 9.02667 0 9.46938 0 13C0 16.5306 0.0149297 16.9733 0.0782031 18.3599C0.141375 19.7436 0.361055 20.6887 0.6825 21.5155C1.01461 22.3704 1.45915 23.0954 2.18187 23.8181C2.90459 24.5409 3.62954 24.9853 4.48449 25.3175C5.31141 25.6389 6.25635 25.8586 7.64004 25.9218C9.02667 25.9851 9.46938 26 13 26C16.5306 26 16.9733 25.9851 18.3599 25.9218C19.7435 25.8586 20.6886 25.6389 21.5154 25.3175C22.3704 24.9854 23.0953 24.5409 23.818 23.8181C24.5408 23.0954 24.9853 22.3705 25.3175 21.5155C25.6388 20.6886 25.8586 19.7436 25.9218 18.36C25.9851 16.9733 26 16.5306 26 13C26 9.46938 25.9851 9.02667 25.9218 7.64014C25.8586 6.25645 25.6388 5.31141 25.3175 4.48459C24.9853 3.62964 24.5408 2.90469 23.818 2.18197C23.0953 1.45925 22.3704 1.01461 21.5155 0.6825C20.6886 0.361156 19.7435 0.141375 18.3599 0.0782031C16.9733 0.0149297 16.5306 0 13 0ZM13 6.3243C9.31308 6.3243 6.3243 9.31328 6.3243 13C6.3243 16.6869 9.31308 19.6757 13 19.6757C16.6868 19.6757 19.6757 16.6869 19.6757 13C19.6757 9.31318 16.6868 6.3243 13 6.3243ZM13 17.3334C10.6068 17.3334 8.66663 15.3932 8.66663 13C8.66663 10.6068 10.6068 8.66663 13 8.66663C15.3932 8.66663 17.3334 10.6068 17.3334 13C17.3334 15.3932 15.3932 17.3334 13 17.3334ZM21.4994 6.06054C21.4994 6.9222 20.801 7.62054 19.9394 7.62054C19.0778 7.62054 18.3794 6.9222 18.3794 6.06054C18.3794 5.19898 19.0778 4.50054 19.9394 4.50054C20.801 4.50054 21.4994 5.19898 21.4994 6.06054Z" fill="#ED2227"/>
</svg>
