<svg width="26" height="26" viewBox="0 0 26 26" fill="none" xmlns="http://www.w3.org/2000/svg">
<path d="M13 0C20.1679 0 26 4.732 26 10.5495C26 12.8781 25.0981 14.9744 23.2131 17.0397C20.4864 20.1793 14.3877 24.0029 13 24.5879C11.6512 25.1566 11.8073 24.2677 11.869 23.9167L11.8739 23.8875L12.0591 22.7744C12.103 22.4429 12.1485 21.9277 12.0169 21.5995C11.8706 21.2371 11.2954 21.0486 10.8729 20.9576C4.62475 20.1338 0 15.7641 0 10.5495C0 4.732 5.83375 0 13 0ZM8.16075 12.4897H5.68262V7.99175C5.68263 7.9248 5.65614 7.86056 5.60895 7.81307C5.56176 7.76558 5.4977 7.73868 5.43075 7.73825H4.5175C4.48421 7.73825 4.45125 7.74481 4.42049 7.75755C4.38973 7.77029 4.36179 7.78896 4.33825 7.8125C4.31471 7.83604 4.29604 7.86398 4.2833 7.89474C4.27056 7.9255 4.264 7.95846 4.264 7.99175V13.6565C4.264 13.7231 4.29163 13.7865 4.3355 13.8304V13.832L4.33875 13.8352L4.342 13.8385C4.38913 13.8838 4.45212 13.9089 4.5175 13.9084H8.16075C8.3005 13.9084 8.41263 13.7946 8.41263 13.6549V12.7449C8.41284 12.7116 8.40649 12.6786 8.39395 12.6477C8.38141 12.6169 8.36292 12.5888 8.33953 12.5651C8.31614 12.5415 8.28831 12.5226 8.25764 12.5097C8.22696 12.4967 8.19404 12.49 8.16075 12.4897ZM9.44613 7.73825C9.37889 7.73825 9.31441 7.76496 9.26687 7.8125C9.21933 7.86004 9.19263 7.92452 9.19263 7.99175V13.6565C9.19263 13.7963 9.30638 13.9084 9.44613 13.9084H10.3594C10.4991 13.9084 10.6112 13.7946 10.6112 13.6565V7.99175C10.6113 7.9248 10.5848 7.86056 10.5376 7.81307C10.4904 7.76558 10.4263 7.73868 10.3594 7.73825H9.44613ZM15.7235 7.73825C15.6563 7.73825 15.5918 7.76496 15.5442 7.8125C15.4967 7.86004 15.47 7.92452 15.47 7.99175V11.3555L12.8749 7.852C12.8683 7.84347 12.8613 7.83533 12.8538 7.82762V7.826C12.8486 7.82031 12.8432 7.81489 12.8375 7.80975L12.8326 7.80487C12.8271 7.79955 12.8211 7.79466 12.8148 7.79025H12.8131L12.805 7.78375L12.8001 7.7805C12.7976 7.77861 12.7949 7.77697 12.792 7.77562L12.779 7.7675H12.7758L12.7709 7.76425L12.7546 7.75775L12.7481 7.7545C12.7428 7.75257 12.7374 7.75094 12.7319 7.74963H12.7286L12.7238 7.748L12.7091 7.74475H12.6994L12.6945 7.74312H12.688L12.6848 7.7415H11.752C11.685 7.7415 11.6208 7.76798 11.5733 7.81517C11.5258 7.86236 11.4989 7.92642 11.4985 7.99338V13.6581C11.4985 13.7979 11.6122 13.91 11.752 13.91H12.662C12.8034 13.91 12.9171 13.7962 12.9171 13.6581V10.2944L15.5171 13.8044C15.5344 13.8286 15.5559 13.8495 15.5805 13.8661L15.5821 13.8678L15.5984 13.8775L15.6049 13.8807C15.6091 13.8832 15.6134 13.8854 15.6179 13.8872L15.6292 13.8921L15.6374 13.8954C15.6427 13.8972 15.6482 13.8988 15.6536 13.9002H15.6585C15.6796 13.9063 15.7015 13.9096 15.7235 13.91H16.6335C16.7749 13.91 16.8886 13.7962 16.8886 13.6581V7.99175C16.8886 7.92452 16.8619 7.86004 16.8144 7.8125C16.7668 7.76496 16.7024 7.73825 16.6351 7.73825H15.7235ZM21.9229 8.90338V7.99338C21.9231 7.96008 21.9167 7.92708 21.9042 7.89624C21.8917 7.8654 21.8732 7.83734 21.8498 7.81365C21.8264 7.78996 21.7986 7.7711 21.7679 7.75817C21.7372 7.74523 21.7043 7.73846 21.671 7.73825H18.0278C17.9622 7.73833 17.8992 7.76398 17.8522 7.80975H17.8506L17.849 7.813L17.8458 7.81787C17.8004 7.86443 17.7747 7.92674 17.7743 7.99175V13.6565C17.7743 13.7231 17.8019 13.7865 17.8458 13.8304L17.849 13.8352L17.8522 13.8385C17.8995 13.8837 17.9624 13.9087 18.0278 13.9084H21.671C21.8108 13.9084 21.9229 13.7946 21.9229 13.6549V12.7449C21.9231 12.7116 21.9167 12.6786 21.9042 12.6477C21.8917 12.6169 21.8732 12.5888 21.8498 12.5651C21.8264 12.5415 21.7986 12.5226 21.7679 12.5097C21.7372 12.4967 21.7043 12.49 21.671 12.4897H19.1912V11.5326H21.6694C21.8091 11.5326 21.9212 11.4189 21.9212 11.2791V10.3691C21.9215 10.3358 21.9151 10.3028 21.9026 10.272C21.89 10.2412 21.8715 10.2131 21.8482 10.1894C21.8248 10.1657 21.7969 10.1469 21.7663 10.1339C21.7356 10.121 21.7027 10.1142 21.6694 10.114H19.1912V9.15688H21.6694C21.8091 9.15688 21.9212 9.04313 21.9212 8.90338H21.9229Z" fill="#ED2227"/>
</svg>
