<svg id="Layer_1" data-name="Layer 1" xmlns="http://www.w3.org/2000/svg" viewBox="0 0 17.58 17.58"><defs><style>.cls-1{fill:#fff;}</style></defs><path class="cls-1" d="M8.79,3.43A2.87,2.87,0,1,0,11.66,6.3,2.88,2.88,0,0,0,8.79,3.43ZM8.79,8A1.72,1.72,0,1,1,10.51,6.3,1.72,1.72,0,0,1,8.79,8Z"/><path class="cls-1" d="M8.79,0A6.33,6.33,0,0,0,2.47,6.3c0,2.44.73,3.39,5.84,11a.58.58,0,0,0,1,0c5.13-7.68,5.84-8.63,5.84-11A6.33,6.33,0,0,0,8.79,0Zm0,16C4.2,9.13,3.62,8.29,3.62,6.3A5.17,5.17,0,0,1,14,6.3C14,8.22,13.52,8.92,8.79,16Z"/></svg>