<svg width="26" height="26" viewBox="0 0 26 26" fill="none" xmlns="http://www.w3.org/2000/svg">
<path d="M19.4215 6.84747C18.6471 5.95368 17.6895 5.23685 16.6137 4.74556C15.538 4.25427 14.3692 4 13.1865 4C12.0039 4 10.8351 4.25427 9.7593 4.74556C8.68354 5.23685 7.72599 5.95368 6.95153 6.84747C5.59611 8.47971 4.90343 10.5616 5.01086 12.6806C5.11829 14.7995 6.01796 16.8007 7.53152 18.2875L11.6815 22.4275C11.8738 22.6201 12.1021 22.7729 12.3535 22.8771C12.6049 22.9814 12.8744 23.0351 13.1465 23.0351C13.4187 23.0351 13.6881 22.9814 13.9395 22.8771C14.1909 22.7729 14.4192 22.6201 14.6115 22.4275L18.7615 18.2875C20.2867 16.8111 21.2011 14.8154 21.3233 12.6962C21.4456 10.5771 20.7668 8.48944 19.4215 6.84747V6.84747Z" stroke="white" stroke-miterlimit="10"/>
<path d="M13.1814 15.7076C15.0979 15.7076 16.6514 14.154 16.6514 12.2376C16.6514 10.3212 15.0979 8.76758 13.1814 8.76758C11.265 8.76758 9.71143 10.3212 9.71143 12.2376C9.71143 14.154 11.265 15.7076 13.1814 15.7076Z" stroke="white" stroke-miterlimit="10"/>
</svg>
