<svg id="Layer_1" data-name="Layer 1" xmlns="http://www.w3.org/2000/svg" viewBox="0 0 184.05 109.92"><defs><style>.cls-1,.cls-3{fill:none;stroke-miterlimit:10;}.cls-1{stroke:#3d3938;stroke-width:4px;}.cls-2{fill:#ec2326;}.cls-3{stroke:#ed2024;stroke-width:3px;}</style></defs><path class="cls-1" d="M107.23,63.55a53,53,0,1,1,0-17.18"/><path class="cls-2" d="M7,104.69s7.94,14.9,14.13-17.62S40-7.89,49.34,33.85c9.93,44.29,29,30.77,35.23,16.84,0,0,8.23-13.81,21.26,3.35h0S91.94,42.78,80.4,61.63a16.31,16.31,0,0,0-1.35,2.75c-1.77,4.6-8.82,20.28-17.9,3.85-10.52-19-18.23-31.09-27.68-9.87C26.63,73.73,18.18,126.3,7,104.69Z"/><line class="cls-3" x1="28.7" y1="54.96" x2="184.05" y2="54.96"/></svg>