<svg width="24" height="24" viewBox="0 0 24 24" fill="none" xmlns="http://www.w3.org/2000/svg">
<g clip-path="url(#clip0_7848_2867)">
<path fill-rule="evenodd" clip-rule="evenodd" d="M17.415 14.3816C17.117 14.2326 15.656 13.5146 15.384 13.4146C15.112 13.3156 14.914 13.2666 14.715 13.5646C14.517 13.8606 13.948 14.5306 13.775 14.7286C13.601 14.9276 13.428 14.9516 13.131 14.8036C12.834 14.6536 11.876 14.3406 10.741 13.3286C9.858 12.5406 9.261 11.5676 9.088 11.2696C8.915 10.9726 9.069 10.8116 9.218 10.6636C9.352 10.5306 9.515 10.3166 9.664 10.1436C9.813 9.96956 9.862 9.84556 9.961 9.64656C10.061 9.44856 10.011 9.27556 9.936 9.12656C9.862 8.97756 9.268 7.51456 9.02 6.91956C8.779 6.34056 8.534 6.41956 8.352 6.40956C8.178 6.40156 7.98 6.39956 7.782 6.39956C7.584 6.39956 7.262 6.47356 6.99 6.77156C6.717 7.06856 5.95 7.78756 5.95 9.25056C5.95 10.7126 7.014 12.1256 7.163 12.3246C7.312 12.5226 9.258 15.5246 12.239 16.8116C12.949 17.1176 13.502 17.3006 13.933 17.4366C14.645 17.6636 15.293 17.6316 15.805 17.5546C16.375 17.4696 17.563 16.8356 17.811 16.1416C18.058 15.4476 18.058 14.8526 17.984 14.7286C17.91 14.6046 17.712 14.5306 17.414 14.3816H17.415ZM11.993 21.7846H11.989C10.2184 21.7849 8.48037 21.3089 6.957 20.4066L6.597 20.1926L2.855 21.1746L3.854 17.5266L3.619 17.1526C2.62914 15.5769 2.10529 13.7533 2.108 11.8926C2.11 6.44256 6.544 2.00855 11.997 2.00855C14.637 2.00855 17.119 3.03855 18.985 4.90656C19.9054 5.82314 20.6349 6.91312 21.1313 8.11345C21.6277 9.31379 21.8811 10.6006 21.877 11.8996C21.875 17.3496 17.441 21.7846 11.993 21.7846ZM20.405 3.48755C19.3032 2.37848 17.9922 1.49909 16.5481 0.900353C15.1039 0.301617 13.5553 -0.00456453 11.992 -0.000447304C5.438 -0.000447304 0.102 5.33456 0.1 11.8916C0.096963 13.9783 0.644374 16.0289 1.687 17.8366L0 23.9996L6.304 22.3456C8.04787 23.2957 10.0021 23.7935 11.988 23.7936H11.993C18.547 23.7936 23.883 18.4586 23.885 11.9006C23.8898 10.3378 23.5848 8.78966 22.9874 7.34559C22.3901 5.90152 21.5124 4.59023 20.405 3.48755Z" fill="#ED2227"/>
</g>
<defs>
<clipPath id="clip0_7848_2867">
<rect width="24" height="24" fill="white"/>
</clipPath>
</defs>
</svg>
